<?xml version="1.0" encoding="UTF-8" ?>
<!DOCTYPE svg PUBLIC "-//W3C//DTD SVG 1.1//EN" "http://www.w3.org/Graphics/SVG/1.1/DTD/svg11.dtd">
<svg width="1024pt" height="1024pt" viewBox="0 0 1024 1024" version="1.1" xmlns="http://www.w3.org/2000/svg">
<g id="#fefefdff">
<path fill="#fefefd" opacity="1.00" d=" M 403.44 193.75 C 414.52 191.09 427.07 192.53 436.07 199.97 C 441.42 204.65 446.66 210.18 448.51 217.25 C 451.18 226.66 451.37 237.42 446.16 246.03 C 444.04 251.44 440.00 255.81 435.39 259.24 C 431.71 261.24 427.88 262.96 424.17 264.89 C 413.07 267.99 400.25 266.25 391.21 258.77 C 381.40 251.12 375.69 238.39 376.65 225.97 C 377.81 218.35 380.39 210.53 386.01 205.02 C 390.90 200.11 396.60 195.49 403.44 193.75 Z" />
<path fill="#fefefd" opacity="1.00" d=" M 614.26 214.24 C 623.33 208.07 634.99 206.66 645.60 208.74 C 652.02 210.60 657.46 214.81 662.11 219.50 C 667.74 215.22 673.15 209.92 680.40 208.67 C 689.69 207.44 699.77 207.92 707.90 213.07 C 710.25 214.59 713.23 216.72 712.42 219.96 C 712.14 223.01 708.63 223.98 706.11 223.11 C 699.12 221.24 691.59 222.16 685.06 225.18 C 679.92 227.72 675.96 232.05 672.62 236.61 C 670.16 239.97 669.11 244.18 666.42 247.38 C 664.80 249.36 661.18 249.43 659.66 247.31 C 656.95 244.17 655.47 240.22 653.16 236.81 C 646.43 226.52 633.69 220.23 621.41 222.53 C 618.65 222.81 615.14 224.67 613.05 221.95 C 610.46 219.84 611.75 215.81 614.26 214.24 Z" />
<path fill="#fefefd" opacity="1.00" d=" M 319.30 263.34 C 320.57 261.60 321.97 259.98 323.43 258.40 C 324.55 266.23 323.84 274.13 323.90 282.00 C 323.91 293.33 323.79 304.67 324.02 316.00 C 324.09 319.51 323.63 323.00 323.15 326.48 C 319.30 323.48 315.86 319.99 312.02 316.99 C 310.25 315.51 307.79 314.79 305.58 315.67 C 300.77 317.45 296.67 320.65 292.32 323.30 C 282.99 328.95 274.03 335.19 264.56 340.62 C 261.20 342.45 258.47 345.49 254.65 346.40 C 277.05 319.39 298.23 291.40 319.30 263.34 Z" />
<path fill="#fefefd" opacity="1.00" d=" M 507.20 289.21 C 509.15 286.05 511.01 282.82 513.32 279.91 C 513.41 280.34 513.60 281.21 513.69 281.65 C 512.75 306.08 513.24 330.55 512.88 355.00 C 512.59 360.45 513.83 366.12 512.37 371.44 C 512.05 371.69 511.42 372.18 511.10 372.43 C 506.19 367.85 502.15 362.16 496.23 358.78 C 492.77 356.53 489.01 359.29 485.95 360.94 C 475.77 367.37 465.79 374.13 455.66 380.65 C 452.48 382.83 449.50 385.38 445.86 386.77 C 454.91 371.98 464.74 357.68 474.04 343.05 C 485.06 325.08 496.22 307.20 507.20 289.21 Z" />
<path fill="#fefefd" opacity="1.00" d=" M 672.96 339.00 C 689.08 319.71 704.73 300.02 720.98 280.86 C 721.51 281.08 722.57 281.54 723.10 281.76 L 722.97 282.53 C 722.62 284.65 722.36 286.80 722.33 288.96 C 722.20 303.31 721.94 317.66 722.23 332.01 C 722.38 336.30 722.39 340.60 722.08 344.90 C 721.32 344.94 719.78 345.02 719.01 345.06 C 715.71 341.98 712.49 338.60 708.38 336.60 C 704.25 334.87 700.19 337.83 696.65 339.64 C 685.12 346.64 673.32 353.18 661.36 359.39 C 658.65 360.83 655.87 362.25 652.80 362.66 C 659.16 354.47 666.36 346.99 672.96 339.00 Z" />
<path fill="#fefefd" opacity="1.00" d=" M 158.01 413.85 C 176.36 412.97 195.13 414.83 212.24 421.87 C 229.66 429.71 245.91 441.56 255.86 458.16 C 258.95 463.26 261.44 468.91 261.67 474.95 C 262.72 484.64 262.76 494.41 262.32 504.14 C 261.01 495.65 259.52 487.02 255.77 479.23 C 251.40 470.39 246.62 461.51 239.45 454.59 C 224.19 438.39 203.18 427.31 180.85 425.60 C 172.94 425.16 165.05 424.54 157.13 424.76 C 157.03 424.28 156.85 423.34 156.76 422.86 C 157.00 419.84 157.64 416.86 158.01 413.85 Z" />
<path fill="#fefefd" opacity="1.00" d=" M 817.22 423.20 C 833.14 415.54 851.13 412.78 868.68 413.88 C 869.25 417.45 869.69 421.04 870.16 424.63 C 863.20 425.03 856.25 425.33 849.29 425.58 C 832.15 427.40 816.00 435.03 802.61 445.70 C 795.43 451.52 789.84 459.00 784.72 466.62 C 780.88 473.52 776.89 480.57 775.33 488.40 C 774.36 492.57 773.89 496.83 773.40 501.08 C 773.02 499.32 772.65 497.56 772.40 495.78 C 772.19 487.86 772.13 479.93 771.43 472.03 C 770.60 467.45 773.94 463.73 776.08 460.04 C 785.73 444.05 800.30 431.10 817.22 423.20 Z" />
<path fill="#fefefd" opacity="1.00" d=" M 284.20 462.19 C 291.70 455.07 303.50 453.70 312.66 458.29 C 309.11 460.31 305.25 461.71 301.62 463.59 C 298.37 465.18 294.97 467.12 291.21 466.73 C 288.27 466.47 286.30 463.97 284.20 462.19 Z" />
<path fill="#fefefd" opacity="1.00" d=" M 650.32 461.37 C 651.48 459.56 653.64 459.75 655.54 459.79 C 653.86 466.36 650.95 472.51 649.01 478.99 C 643.45 496.60 638.00 514.49 636.60 532.99 C 635.85 539.64 638.17 545.98 639.41 552.40 C 634.22 545.81 632.54 537.21 632.61 528.99 C 632.36 512.41 636.42 496.14 641.65 480.52 C 643.98 473.93 645.88 466.92 650.32 461.37 Z" />
<path fill="#fefefd" opacity="1.00" d=" M 738.54 468.61 C 740.36 465.10 744.18 463.33 748.06 463.70 C 740.74 479.12 735.56 495.52 732.52 512.31 C 731.36 507.06 731.84 501.66 731.88 496.33 C 732.37 486.84 733.74 476.97 738.54 468.61 Z" />
<path fill="#fefefd" opacity="1.00" d=" M 699.19 467.09 C 700.74 465.69 702.81 465.21 704.77 464.64 C 704.76 465.08 704.75 465.95 704.74 466.39 C 701.02 471.06 699.27 476.81 697.25 482.33 C 693.40 492.88 690.69 503.82 688.55 514.83 C 687.24 524.84 685.07 535.38 688.71 545.15 C 690.14 548.36 691.48 551.84 694.16 554.23 C 696.80 554.80 699.54 554.62 702.24 554.73 C 699.02 554.63 694.91 556.37 692.43 553.53 C 686.15 546.62 683.61 537.15 682.83 528.04 C 681.95 513.71 684.32 499.31 688.78 485.71 C 691.04 478.98 693.58 471.80 699.19 467.09 Z" />
<path fill="#fefefd" opacity="1.00" d=" M 591.35 522.16 C 592.98 514.57 602.72 509.88 609.59 513.68 C 609.53 514.11 609.41 514.97 609.35 515.40 C 604.84 517.52 600.24 520.23 597.65 524.64 C 595.77 527.69 596.10 532.50 599.61 534.22 C 600.81 535.40 603.45 535.71 603.48 537.69 C 600.67 540.79 596.87 542.71 593.16 544.50 C 592.27 537.09 590.68 529.65 591.35 522.16 Z" />
<path fill="#fefefd" opacity="1.00" d=" M 414.60 529.49 C 419.68 527.52 426.22 530.37 426.94 536.10 C 422.52 535.70 418.14 534.98 413.83 533.97 C 414.12 532.47 414.36 530.98 414.60 529.49 Z" />
<path fill="#fefefd" opacity="1.00" d=" M 165.11 572.29 C 258.49 572.27 351.87 572.30 445.24 572.21 C 446.79 572.16 448.35 572.11 449.90 572.04 C 455.28 578.11 462.60 581.85 468.59 587.20 C 464.17 588.83 459.85 590.75 455.33 592.11 C 450.63 588.37 445.63 584.92 441.65 580.38 C 439.89 578.44 438.37 576.28 436.43 574.51 C 434.47 572.65 431.55 572.78 429.05 572.62 C 348.70 572.72 268.35 572.64 188.00 572.66 C 180.99 572.67 173.97 572.45 166.98 572.99 C 166.88 573.81 166.68 575.44 166.58 576.26 L 166.22 575.66 C 165.77 574.55 165.46 573.41 165.11 572.29 Z" />
<path fill="#fefefd" opacity="1.00" d=" M 590.67 572.32 C 597.06 572.02 603.46 571.87 609.86 571.95 C 623.13 584.93 641.55 589.82 658.83 594.92 C 675.35 599.64 692.66 601.26 708.84 607.16 C 721.89 612.42 735.10 620.31 741.47 633.41 C 744.29 641.33 742.47 649.96 740.81 657.95 C 736.87 661.66 733.89 666.24 730.12 670.10 C 724.54 676.08 719.15 683.44 719.64 692.04 C 720.16 701.34 726.83 708.68 733.70 714.29 C 740.36 720.25 747.42 726.06 755.84 729.35 C 752.25 732.88 748.14 735.83 744.59 739.40 C 739.24 737.11 734.88 733.19 730.40 729.61 C 723.53 724.11 717.04 718.01 711.89 710.85 C 707.12 704.26 704.82 696.09 705.33 687.98 C 706.18 682.14 708.75 676.71 711.68 671.64 C 715.67 664.50 723.72 660.62 727.12 653.06 C 729.97 646.60 729.50 638.50 725.15 632.80 C 720.36 625.50 711.89 622.27 704.28 618.81 C 685.05 611.34 664.17 609.89 644.66 603.36 C 628.51 598.72 612.90 591.72 599.52 581.45 C 596.23 578.74 593.54 575.43 590.67 572.32 Z" />
<path fill="#fefefd" opacity="1.00" d=" M 519.42 586.01 C 518.96 583.49 521.98 582.34 524.02 582.42 C 536.70 582.27 549.38 582.51 562.06 582.33 C 564.33 582.44 567.47 581.84 568.64 584.42 C 568.94 586.24 568.37 588.06 568.05 589.86 C 554.38 590.65 540.65 590.03 526.96 590.29 C 524.07 590.35 519.19 589.93 519.42 586.01 Z" />
<path fill="#fefefd" opacity="1.00" d=" M 461.75 598.90 C 466.04 597.00 470.28 594.88 474.90 593.90 C 473.69 597.08 472.34 600.21 471.06 603.37 C 468.05 601.69 464.94 600.20 461.75 598.90 Z" />
<path fill="#fefefd" opacity="1.00" d=" M 483.00 595.46 C 488.56 597.55 493.58 600.81 499.06 603.09 C 508.09 607.04 516.58 612.05 525.11 616.94 C 530.87 620.36 535.08 625.75 538.94 631.10 C 541.89 635.11 543.57 640.00 543.51 644.99 C 543.85 655.50 537.35 665.07 529.22 671.17 C 523.13 674.91 517.12 678.99 510.27 681.24 C 496.85 685.96 482.68 688.24 468.54 689.36 C 459.37 689.95 450.18 689.57 441.00 689.65 C 418.25 689.65 395.18 687.62 372.77 692.62 C 357.06 695.76 341.36 699.79 326.84 706.69 C 310.44 715.00 295.68 726.36 282.84 739.47 C 278.96 736.62 275.28 733.52 271.52 730.53 C 279.02 724.07 286.49 717.52 294.54 711.73 C 297.79 709.65 300.84 707.27 303.98 705.03 C 314.89 697.76 326.79 691.97 339.35 688.20 C 347.99 684.83 357.15 683.35 366.14 681.27 C 379.59 678.44 393.31 677.40 407.00 676.59 C 428.63 676.28 450.28 677.32 471.90 676.45 C 479.13 675.56 486.34 674.46 493.50 673.16 C 502.42 670.44 511.61 667.71 519.32 662.26 C 523.83 659.16 526.94 654.52 529.59 649.83 C 530.31 644.88 529.67 639.50 526.51 635.46 C 521.86 629.64 515.62 625.28 509.01 621.95 C 499.90 616.80 490.05 613.11 480.95 607.97 C 479.39 607.27 479.84 605.29 479.68 603.96 C 480.79 601.13 482.01 598.34 483.00 595.46 Z" />
<path fill="#fefefd" opacity="1.00" d=" M 556.12 615.27 C 559.38 614.71 562.69 614.46 566.00 614.53 C 579.35 614.64 592.70 614.55 606.05 614.60 C 608.61 614.46 611.37 615.54 612.46 618.03 C 612.35 621.70 607.87 622.19 605.05 622.27 C 592.03 622.35 579.02 622.15 566.00 622.34 C 562.89 622.31 559.65 622.48 556.74 621.24 C 555.49 619.44 555.88 617.28 556.12 615.27 Z" />
<path fill="#fefefd" opacity="1.00" d=" M 628.55 632.05 C 630.37 629.85 633.50 630.66 636.01 630.43 C 652.33 630.70 668.67 630.10 684.98 630.67 C 688.68 630.83 687.68 635.04 687.69 637.53 C 684.80 637.87 681.91 638.26 679.00 638.23 C 665.66 638.07 652.33 638.25 638.99 638.24 C 636.03 638.13 632.97 638.10 630.17 637.05 C 628.10 636.30 628.27 633.80 628.55 632.05 Z" />
<path fill="#fefefd" opacity="1.00" d=" M 582.86 639.97 C 583.28 635.49 587.51 631.69 592.00 631.70 C 595.16 631.86 597.35 634.37 599.59 636.30 C 599.52 639.64 600.24 643.37 598.33 646.36 C 595.51 649.00 591.19 649.21 587.64 648.21 C 584.35 646.92 583.18 643.18 582.86 639.97 Z" />
<path fill="#fefefd" opacity="1.00" d=" M 652.37 668.25 C 655.79 666.49 661.27 668.14 661.98 672.30 C 663.47 676.35 659.32 681.16 655.04 680.19 C 649.65 679.47 647.19 671.02 652.37 668.25 Z" />
<path fill="#fefefd" opacity="1.00" d=" M 551.38 674.98 C 551.20 672.14 554.41 670.33 556.95 670.52 C 572.63 670.46 588.32 670.61 604.01 670.49 C 606.90 670.47 610.39 670.49 612.29 673.09 C 612.32 674.62 612.02 676.14 611.82 677.66 C 608.57 678.21 605.28 678.52 602.00 678.44 C 586.98 678.32 571.96 678.44 556.94 678.39 C 554.57 678.55 552.26 677.20 551.38 674.98 Z" />
<path fill="#fefefd" opacity="1.00" d=" M 552.60 704.64 C 553.78 702.85 555.98 702.12 558.01 701.84 C 561.48 702.00 563.10 705.39 564.56 708.03 C 563.01 710.49 561.63 714.36 558.01 713.89 C 555.02 714.31 553.07 711.76 551.18 709.92 C 551.58 708.14 551.89 706.33 552.60 704.64 Z" />
<path fill="#fefefd" opacity="1.00" d=" M 604.89 720.87 C 607.48 718.45 610.16 715.87 613.65 714.83 C 614.54 725.26 614.43 735.75 614.27 746.21 C 614.25 746.57 614.21 747.28 614.19 747.63 C 608.58 747.60 602.97 747.69 597.37 747.64 C 596.87 746.78 596.39 745.93 595.92 745.08 C 594.62 742.09 593.35 738.76 594.46 735.50 C 596.34 729.68 600.55 725.02 604.89 720.87 M 606.30 727.46 C 604.53 729.45 605.97 731.92 607.31 733.66 C 608.79 733.63 610.28 733.60 611.78 733.57 C 612.79 731.14 612.86 728.51 612.65 725.93 C 610.43 725.36 607.66 725.23 606.30 727.46 Z" />
<path fill="#fefefd" opacity="1.00" d=" M 665.45 721.19 C 668.76 716.94 674.38 716.28 679.32 715.38 C 681.68 714.78 683.91 715.82 685.95 716.91 C 685.78 718.45 685.62 720.00 685.47 721.56 C 680.19 723.33 674.76 725.25 669.14 725.26 C 667.73 724.06 666.61 722.60 665.45 721.19 Z" />
<path fill="#fefefd" opacity="1.00" d=" M 358.35 727.39 C 361.36 726.73 365.21 727.06 367.03 729.92 C 369.84 733.78 368.59 740.15 363.83 741.77 C 359.14 743.81 353.20 740.07 353.22 734.95 C 352.76 731.57 355.20 728.38 358.35 727.39 Z" />
<path fill="#fefefd" opacity="1.00" d=" M 411.37 746.17 C 412.63 745.10 414.45 745.52 415.98 745.35 C 429.99 745.48 444.01 745.30 458.03 745.50 C 460.91 745.28 463.28 748.14 462.50 750.95 C 461.51 753.52 458.29 753.42 456.01 753.54 C 444.01 753.48 432.01 753.29 420.01 753.40 C 417.47 753.32 414.81 753.58 412.43 752.57 C 410.00 751.64 409.32 747.73 411.37 746.17 Z" />
<path fill="#fefefd" opacity="1.00" d=" M 501.33 748.25 C 502.79 747.63 504.40 747.64 505.97 747.62 C 514.31 747.62 522.66 747.91 531.00 747.70 C 533.45 747.70 536.05 747.52 538.29 748.73 C 539.40 750.36 540.20 752.90 538.61 754.51 C 537.57 755.98 535.59 755.66 534.05 755.82 C 524.68 755.82 515.31 755.92 505.94 755.91 C 503.81 755.81 501.09 755.93 499.82 753.86 C 499.14 752.03 499.38 749.07 501.33 748.25 Z" />
</g>
<g id="#0d3748ff">
<path fill="#0d3748" opacity="1.00" d=" M 488.46 110.62 C 529.56 108.03 571.12 111.68 610.98 122.17 C 633.32 127.67 655.07 135.43 675.97 145.03 C 692.16 152.75 708.30 160.77 723.20 170.82 C 738.29 180.02 752.26 190.94 765.96 202.07 C 795.88 227.71 821.65 258.12 842.41 291.58 C 861.56 323.85 875.74 359.08 884.23 395.64 C 892.29 429.04 894.65 463.65 893.03 497.91 C 891.53 532.02 884.20 565.74 872.67 597.83 C 856.65 642.53 829.93 682.96 796.93 716.94 C 779.63 734.78 760.83 751.25 740.29 765.29 C 719.16 780.00 696.75 792.98 673.00 802.97 C 647.46 814.43 620.43 822.23 593.07 827.89 C 556.95 835.30 519.82 836.98 483.09 834.44 C 458.11 832.38 433.25 828.49 409.04 821.96 C 368.26 811.64 329.58 793.67 294.60 770.41 C 263.17 750.02 235.03 724.69 210.99 695.97 C 186.91 667.67 167.65 635.21 154.75 600.36 C 146.40 578.65 141.00 555.92 137.29 533.00 C 132.92 506.91 132.44 480.35 133.84 453.99 C 138.27 393.60 157.11 333.97 190.21 283.11 C 218.55 239.89 255.67 202.42 298.78 173.89 C 339.61 146.58 386.14 128.39 434.10 118.23 C 452.00 114.34 470.20 111.96 488.46 110.62 M 436.01 137.01 C 374.38 150.04 315.74 178.58 268.90 220.89 C 249.49 238.87 231.03 258.07 215.71 279.70 C 203.25 296.54 192.48 314.69 183.85 333.78 C 181.63 336.65 180.84 340.28 179.35 343.52 C 176.23 350.27 174.11 357.41 171.48 364.35 C 167.68 374.92 164.37 385.72 162.07 396.72 C 167.28 397.07 172.65 398.08 177.81 396.89 C 181.41 394.55 184.03 391.04 187.13 388.13 C 194.92 379.97 203.33 372.43 210.98 364.14 C 220.64 354.22 230.11 344.10 239.77 334.17 C 264.99 305.92 287.11 275.11 309.86 244.88 C 313.33 240.43 315.79 234.88 320.70 231.79 C 324.15 230.71 328.56 230.99 330.95 234.03 C 335.46 239.34 338.64 245.60 342.88 251.11 C 361.74 277.91 380.49 304.81 399.77 331.30 C 408.16 342.58 415.97 354.32 425.04 365.09 C 427.19 367.86 428.44 371.86 431.93 373.23 C 434.51 370.70 436.10 367.39 438.18 364.47 C 444.51 353.88 452.11 344.09 458.10 333.30 C 462.79 325.61 467.93 318.20 472.50 310.44 C 482.79 293.11 493.90 276.29 503.78 258.72 C 505.68 255.49 507.89 251.44 512.06 251.05 C 516.39 250.22 519.97 253.56 522.00 257.01 C 537.70 282.71 552.95 308.70 568.97 334.20 C 574.99 344.44 581.47 354.40 587.72 364.50 C 592.77 372.36 598.40 379.89 604.99 386.54 C 613.02 380.15 619.06 371.67 625.87 364.06 C 633.09 356.23 640.07 348.16 647.29 340.30 C 649.08 338.39 650.71 336.33 652.10 334.10 C 654.75 332.07 656.54 329.17 658.68 326.65 C 664.38 319.41 670.49 312.50 676.39 305.42 C 688.48 290.52 701.30 276.20 712.86 260.86 C 715.10 257.98 717.95 254.77 721.99 255.13 C 728.47 254.86 731.61 261.53 735.23 265.76 C 750.60 284.41 765.40 303.53 780.98 322.01 C 784.52 326.16 787.87 330.53 791.85 334.27 C 800.11 344.88 809.23 354.81 818.08 364.94 C 825.73 373.29 833.26 381.74 841.17 389.84 C 843.71 392.38 845.91 395.40 849.09 397.20 C 854.16 397.76 859.25 396.89 864.34 396.82 C 864.18 394.70 863.97 392.59 863.44 390.54 C 860.83 380.94 858.10 371.36 854.54 362.07 C 850.73 352.05 847.12 341.92 842.49 332.25 C 832.45 311.83 820.81 292.12 806.95 274.05 C 798.39 262.12 788.35 251.35 778.49 240.51 C 759.05 220.71 737.81 202.55 714.39 187.61 C 653.87 148.79 581.97 127.62 510.00 128.63 C 485.16 129.00 460.23 131.28 436.01 137.01 M 323.33 257.39 L 323.43 258.40 C 321.97 259.98 320.57 261.60 319.30 263.34 C 298.23 291.40 277.05 319.39 254.65 346.40 L 254.00 346.59 C 236.30 364.64 218.43 382.56 199.92 399.78 C 208.83 402.41 217.81 405.02 226.03 409.45 C 230.32 412.07 234.94 414.13 239.11 416.97 C 243.86 420.07 248.21 423.73 252.75 427.11 C 256.76 430.90 260.00 435.40 264.05 439.15 C 266.43 442.95 269.20 446.49 272.00 450.00 C 277.29 446.04 282.75 442.07 289.05 439.90 C 292.13 438.82 295.44 438.56 298.52 437.48 C 304.70 438.45 311.13 438.61 316.92 441.20 C 321.79 443.38 326.43 446.11 330.59 449.46 C 334.59 452.62 337.30 457.03 340.93 460.56 C 346.53 455.14 352.40 449.99 357.89 444.47 C 359.41 442.80 361.02 441.21 362.74 439.74 C 369.80 433.68 376.01 426.68 383.15 420.71 C 386.15 418.57 388.68 415.88 391.24 413.24 C 395.01 409.32 399.54 406.24 403.26 402.26 C 408.18 397.67 411.78 391.57 418.01 388.55 C 416.42 383.21 411.83 379.60 408.97 374.97 C 399.37 363.11 389.89 351.11 381.07 338.69 C 376.01 330.32 369.97 322.62 364.38 314.62 C 353.34 298.70 342.22 282.84 330.98 267.07 C 328.59 263.72 326.49 260.09 323.33 257.39 M 507.20 289.21 C 496.22 307.20 485.06 325.08 474.04 343.05 C 464.74 357.68 454.91 371.98 445.86 386.77 C 443.15 388.32 441.45 391.12 439.07 393.09 C 422.49 408.16 406.43 423.78 389.88 438.88 C 379.63 448.65 368.86 457.85 358.73 467.75 C 356.27 470.44 352.32 472.32 351.24 475.95 C 352.77 480.71 355.38 485.10 356.36 490.07 C 359.57 489.14 362.66 487.80 365.90 486.96 C 369.49 486.01 373.26 486.73 376.88 486.01 C 382.34 487.28 387.95 488.42 392.88 491.23 C 398.88 494.78 403.64 500.12 407.23 506.05 C 408.08 508.04 408.76 510.19 410.28 511.80 C 417.29 511.02 424.57 511.40 430.87 514.91 C 434.14 516.77 436.96 519.30 439.43 522.12 C 440.58 524.18 441.69 526.27 443.10 528.17 C 444.15 531.33 444.90 534.62 444.87 537.98 C 444.88 549.39 444.16 560.82 445.24 572.21 C 351.87 572.30 258.49 572.27 165.11 572.29 C 165.46 573.41 165.77 574.55 166.22 575.66 C 166.65 578.65 167.55 581.56 168.64 584.39 C 174.01 598.09 179.10 611.96 186.04 624.98 C 191.86 635.35 197.07 646.13 204.14 655.75 C 206.73 659.12 208.46 663.28 211.81 665.99 C 214.09 670.82 218.25 674.36 221.10 678.83 C 223.93 683.22 228.08 686.52 231.11 690.75 C 236.97 699.76 246.01 705.96 253.07 713.94 C 258.57 720.14 264.84 725.62 271.52 730.53 C 275.28 733.52 278.96 736.62 282.84 739.47 C 290.59 745.79 299.28 750.80 307.41 756.59 C 325.61 768.43 344.79 778.95 365.05 786.81 C 373.03 791.59 382.19 793.91 390.83 797.21 C 403.73 802.25 417.37 804.84 430.72 808.35 C 464.67 815.21 499.43 818.14 534.04 816.76 C 568.50 815.02 602.83 808.96 635.43 797.55 C 643.13 794.82 651.33 792.73 658.12 788.06 C 664.40 786.69 670.19 783.69 676.01 781.04 C 700.41 769.93 723.04 755.27 744.59 739.40 C 748.14 735.83 752.25 732.88 755.84 729.35 C 759.22 726.89 762.50 724.25 765.34 721.17 C 780.20 708.42 793.11 693.60 805.50 678.51 C 810.03 674.53 813.21 669.40 816.21 664.23 C 818.80 661.42 820.80 658.11 823.02 655.00 C 839.14 631.00 851.45 604.46 859.91 576.84 C 860.25 575.32 860.58 573.80 860.92 572.28 C 790.95 572.11 720.97 572.18 651.00 572.20 C 637.29 572.33 623.58 571.57 609.86 571.95 C 603.46 571.87 597.06 572.02 590.67 572.32 C 590.27 572.25 589.48 572.10 589.09 572.02 C 586.80 570.73 584.03 569.85 582.55 567.53 C 578.14 560.77 576.68 552.69 575.40 544.87 C 574.62 539.39 573.40 533.97 573.17 528.42 C 572.68 521.97 573.29 515.05 577.37 509.74 C 580.25 506.22 582.90 502.34 586.83 499.88 C 593.56 495.58 601.94 494.01 609.78 495.37 C 612.44 495.80 615.05 496.65 617.76 496.73 C 620.72 492.77 621.29 487.65 622.85 483.07 C 624.10 477.65 626.94 472.77 628.27 467.38 C 629.36 463.16 630.95 459.04 633.32 455.36 C 634.64 453.01 636.50 450.76 636.76 447.99 C 636.95 446.15 635.27 445.01 634.21 443.78 C 629.95 439.72 625.84 435.50 621.81 431.20 C 614.63 422.75 606.40 415.28 598.67 407.33 C 593.21 402.46 589.39 396.01 583.50 391.59 C 580.51 389.39 579.22 385.74 576.54 383.27 C 569.43 370.91 561.43 359.06 554.23 346.74 C 542.74 327.91 531.18 309.12 519.89 290.16 C 518.06 287.16 516.40 283.96 513.69 281.65 C 513.60 281.21 513.41 280.34 513.32 279.91 C 511.01 282.82 509.15 286.05 507.20 289.21 M 672.96 339.00 C 666.36 346.99 659.16 354.47 652.80 362.66 L 652.24 362.77 C 642.70 373.70 632.69 384.20 622.84 394.85 C 621.34 396.76 618.58 398.11 618.30 400.69 C 623.51 406.56 629.41 411.81 634.89 417.45 C 641.55 424.67 648.79 431.34 655.31 438.69 C 658.16 442.25 663.10 442.65 666.42 445.59 C 669.77 448.31 671.78 452.22 674.59 455.42 C 676.94 456.17 678.87 453.79 680.79 452.76 C 689.52 452.19 696.14 443.48 705.25 445.67 C 712.66 446.50 718.27 452.17 721.75 458.39 C 722.34 459.94 723.56 457.62 724.21 457.19 C 730.02 449.43 739.45 444.37 749.25 444.66 C 752.63 446.12 755.78 448.10 759.16 449.57 C 760.33 450.07 761.05 448.48 761.84 447.88 C 764.68 444.54 767.31 441.01 770.38 437.87 C 771.95 436.28 773.43 434.59 774.84 432.84 C 779.37 426.99 785.85 423.19 791.27 418.27 C 796.17 413.73 802.39 411.15 808.28 408.18 C 813.97 405.36 820.02 403.37 825.87 400.87 C 821.94 394.99 816.60 390.33 811.71 385.30 C 804.29 376.24 795.30 368.64 787.66 359.78 L 787.10 359.57 C 767.77 335.70 748.10 312.12 728.68 288.33 C 726.97 286.21 725.12 284.20 722.97 282.53 L 723.10 281.76 C 722.57 281.54 721.51 281.08 720.98 280.86 C 704.73 300.02 689.08 319.71 672.96 339.00 M 158.01 413.85 C 157.64 416.86 157.00 419.84 156.76 422.86 C 155.22 430.76 154.58 438.80 153.84 446.81 C 152.77 452.56 153.65 458.47 152.58 464.25 C 151.59 485.33 152.68 506.48 155.61 527.39 C 156.76 536.95 158.68 546.41 161.23 555.70 C 172.73 556.08 184.23 555.53 195.73 555.72 C 196.09 544.80 195.95 533.88 196.11 522.97 C 195.89 521.06 196.47 518.57 194.66 517.30 C 189.15 512.85 184.22 507.76 178.77 503.25 C 176.14 500.95 173.07 497.91 173.95 494.06 C 174.31 490.95 177.06 488.78 180.10 488.68 C 186.78 490.31 190.76 496.39 196.04 500.28 C 196.51 494.52 196.22 488.74 196.35 482.98 C 196.35 480.42 196.98 477.69 198.85 475.84 C 202.54 472.81 209.47 474.34 210.46 479.34 C 211.24 486.19 210.99 493.13 211.24 500.02 C 215.77 496.32 219.63 491.87 224.14 488.16 C 226.98 485.65 231.81 485.82 234.27 488.80 C 236.52 491.06 236.47 495.03 234.29 497.33 C 231.02 501.10 226.62 503.62 222.91 506.91 C 220.27 509.28 217.51 511.51 214.86 513.87 C 213.62 514.80 211.45 515.31 211.37 517.16 C 211.00 523.07 211.30 529.00 211.20 534.93 C 215.37 531.26 219.59 527.66 223.76 524.00 C 226.42 521.81 229.12 518.54 232.96 519.10 C 236.14 519.23 238.42 522.00 239.32 524.83 C 239.35 527.40 239.18 530.26 236.95 531.97 C 229.17 538.89 220.97 545.34 212.95 552.00 C 211.83 552.77 210.14 554.96 212.38 555.46 C 217.53 556.19 222.77 555.75 227.95 555.67 C 240.40 555.30 250.98 546.42 257.18 536.19 C 260.00 532.73 262.33 528.62 262.25 524.01 C 262.35 517.39 262.55 510.75 262.32 504.14 C 262.76 494.41 262.72 484.64 261.67 474.95 C 261.44 468.91 258.95 463.26 255.86 458.16 C 245.91 441.56 229.66 429.71 212.24 421.87 C 195.13 414.83 176.36 412.97 158.01 413.85 M 817.22 423.20 C 800.30 431.10 785.73 444.05 776.08 460.04 C 773.94 463.73 770.60 467.45 771.43 472.03 C 772.13 479.93 772.19 487.86 772.40 495.78 C 772.01 501.52 772.75 507.25 772.62 513.00 C 772.72 517.65 772.25 522.34 772.80 526.97 C 773.57 529.99 775.58 532.47 777.09 535.15 C 783.32 545.71 793.76 556.36 806.96 555.77 C 812.01 555.84 817.06 555.88 822.11 555.68 C 821.81 554.16 822.02 552.36 820.76 551.24 C 815.92 546.05 809.94 542.09 805.14 536.85 C 801.75 533.07 796.06 530.60 795.59 524.95 C 796.70 523.06 797.33 520.51 799.56 519.60 C 802.78 518.22 806.33 519.46 809.09 521.30 C 812.17 524.09 815.41 526.72 818.07 529.94 C 819.06 530.91 819.94 532.66 821.59 531.81 C 822.02 527.56 822.07 523.25 821.81 518.99 C 821.84 517.42 820.70 516.31 819.86 515.15 C 813.79 510.23 808.07 504.92 802.15 499.85 C 800.26 498.10 798.15 495.92 798.33 493.14 C 798.59 490.65 799.67 487.85 802.16 486.84 C 804.98 485.79 808.17 486.73 810.43 488.61 C 814.81 492.07 818.33 496.49 822.68 499.99 C 822.71 492.79 822.01 485.45 823.43 478.34 C 825.34 472.27 835.17 473.47 836.78 479.12 C 837.64 485.20 837.03 491.37 837.33 497.50 C 836.91 516.90 837.47 536.30 837.30 555.70 C 845.22 555.79 853.14 555.77 861.06 555.81 C 862.40 555.62 864.02 556.02 865.18 555.14 C 866.05 553.19 866.48 551.08 866.98 549.02 C 871.65 529.15 874.14 508.78 874.49 488.39 C 875.15 476.89 873.94 465.43 873.74 453.95 C 873.69 452.55 873.38 451.20 873.07 449.86 C 872.65 441.41 871.87 432.93 870.16 424.63 C 869.69 421.04 869.25 417.45 868.68 413.88 C 851.13 412.78 833.14 415.54 817.22 423.20 M 284.20 462.19 C 281.62 464.70 279.05 467.51 278.31 471.16 C 277.29 476.20 277.49 481.42 278.04 486.51 C 277.26 494.32 277.81 502.18 277.65 510.01 C 277.76 518.02 277.32 526.04 277.88 534.04 C 278.32 541.31 281.91 548.02 286.53 553.51 C 289.29 556.68 293.88 555.54 297.57 555.60 C 298.68 537.10 297.40 518.54 298.60 500.05 C 298.73 493.61 298.63 487.17 298.59 480.73 C 299.54 478.07 301.99 475.72 304.99 476.02 C 307.70 475.76 309.89 477.71 311.39 479.75 C 311.45 488.83 311.04 497.94 311.72 507.02 C 312.49 523.20 311.24 539.44 312.36 555.61 C 320.25 555.72 328.14 555.56 336.03 555.74 C 337.77 555.68 339.61 555.89 341.28 555.27 C 341.91 553.25 341.65 551.09 341.70 549.02 C 341.48 536.82 341.88 524.61 341.50 512.42 C 340.97 505.13 340.49 497.48 337.04 490.88 C 333.33 481.61 328.74 472.46 321.98 465.02 C 319.41 462.12 316.17 459.91 312.66 458.29 C 303.50 453.70 291.70 455.07 284.20 462.19 M 650.32 461.37 C 645.88 466.92 643.98 473.93 641.65 480.52 C 636.42 496.14 632.36 512.41 632.61 528.99 C 632.54 537.21 634.22 545.81 639.41 552.40 C 639.80 553.32 639.67 555.07 641.08 555.04 C 646.11 555.86 651.22 555.13 656.29 555.18 C 659.06 555.15 661.94 555.55 664.62 554.67 C 667.92 551.00 668.64 545.81 668.69 541.05 C 668.78 530.03 668.82 519.02 668.80 508.00 C 668.70 498.94 668.25 489.79 665.97 480.99 C 664.14 473.97 662.13 466.64 657.12 461.16 C 656.72 460.82 655.93 460.13 655.54 459.79 C 653.64 459.75 651.48 459.56 650.32 461.37 M 738.54 468.61 C 733.74 476.97 732.37 486.84 731.88 496.33 C 731.84 501.66 731.36 507.06 732.52 512.31 C 731.90 520.85 732.67 529.46 732.41 538.03 C 732.08 542.71 733.37 547.29 735.51 551.42 C 736.37 552.87 736.91 555.13 739.02 555.04 C 742.43 555.41 745.87 554.96 749.30 554.89 C 751.99 554.96 754.96 555.75 757.49 554.49 C 761.26 549.50 760.16 542.86 760.29 537.03 C 759.38 517.49 761.65 497.54 756.58 478.41 C 755.10 473.50 753.57 468.13 749.39 464.80 C 749.05 464.53 748.39 463.98 748.06 463.70 C 744.18 463.33 740.36 465.10 738.54 468.61 M 699.19 467.09 C 693.58 471.80 691.04 478.98 688.78 485.71 C 684.32 499.31 681.95 513.71 682.83 528.04 C 683.61 537.15 686.15 546.62 692.43 553.53 C 694.91 556.37 699.02 554.63 702.24 554.73 C 703.52 554.76 704.80 554.81 706.09 554.87 C 708.34 554.90 710.60 554.89 712.87 554.89 C 715.79 550.13 717.98 544.74 717.73 539.06 C 717.50 516.65 719.74 493.29 710.98 472.05 C 709.80 468.94 707.56 466.41 704.77 464.64 C 702.81 465.21 700.74 465.69 699.19 467.09 M 358.12 512.32 L 357.31 512.19 C 357.40 526.63 357.23 541.08 357.45 555.52 C 361.40 555.67 365.38 556.05 369.30 555.39 L 368.22 555.28 C 368.91 543.95 368.20 532.57 368.61 521.23 C 368.91 517.33 372.84 513.68 376.85 515.05 C 380.41 515.73 381.83 519.74 381.69 522.97 C 381.64 533.78 381.93 544.60 381.90 555.42 C 385.53 555.91 389.20 555.72 392.86 555.76 C 395.02 553.29 396.86 550.40 397.04 547.04 C 397.87 538.05 397.36 528.78 394.55 520.15 C 392.02 513.52 387.47 507.13 380.63 504.50 C 372.64 501.93 361.89 504.09 358.12 512.32 M 591.35 522.16 C 590.68 529.65 592.27 537.09 593.16 544.50 C 594.02 548.12 594.86 551.95 597.24 554.93 C 601.09 555.90 605.14 555.00 609.08 555.06 C 611.18 554.91 614.39 555.87 615.38 553.33 C 617.85 548.64 617.60 543.15 617.75 538.01 C 617.64 532.32 617.91 526.48 616.17 521.00 C 614.95 517.81 612.20 515.68 609.59 513.68 C 602.72 509.88 592.98 514.57 591.35 522.16 M 414.60 529.49 C 414.36 530.98 414.12 532.47 413.83 533.97 C 412.70 541.07 413.55 548.34 413.44 555.51 C 418.25 555.75 423.06 555.91 427.88 555.90 C 428.24 552.38 428.37 548.84 428.17 545.31 C 428.21 542.26 428.05 539.22 427.81 536.19 L 426.94 536.10 C 426.22 530.37 419.68 527.52 414.60 529.49 Z" />
<path fill="#0d3748" opacity="1.00" d=" M 468.59 587.20 C 472.51 585.95 476.22 584.16 480.14 582.95 C 482.97 581.74 485.96 584.24 486.42 587.02 C 485.57 589.94 484.00 592.59 483.00 595.46 C 482.01 598.34 480.79 601.13 479.68 603.96 C 475.82 615.51 468.78 626.95 470.71 639.57 C 471.33 645.28 476.27 649.80 475.81 655.67 C 474.11 658.25 469.74 658.80 468.03 655.94 C 464.60 650.63 462.66 644.30 462.30 638.00 C 461.44 625.80 466.56 614.39 471.06 603.37 C 472.34 600.21 473.69 597.08 474.90 593.90 C 470.28 594.88 466.04 597.00 461.75 598.90 C 441.04 606.63 420.85 615.65 400.75 624.83 C 398.59 625.82 396.61 627.14 394.73 628.57 C 402.22 628.78 409.72 628.89 417.22 628.69 C 418.31 629.88 420.04 631.06 419.49 632.95 C 417.55 637.54 414.29 641.43 411.49 645.52 C 408.15 649.43 404.88 653.40 401.44 657.22 C 398.88 659.79 396.11 663.09 392.06 662.62 C 357.35 662.58 322.64 662.51 287.93 662.65 C 286.23 662.54 284.44 662.72 282.84 662.05 C 280.60 660.44 278.95 658.18 277.20 656.09 C 273.34 651.18 269.79 646.05 266.06 641.06 C 264.38 637.86 261.95 633.93 264.22 630.40 C 266.30 628.54 269.39 628.99 271.98 628.84 C 280.37 629.12 288.78 629.49 297.17 628.78 C 297.50 619.16 297.49 609.51 297.29 599.89 C 293.78 599.68 290.20 599.97 286.76 599.19 C 284.17 597.76 283.74 593.87 285.57 591.69 C 288.30 590.90 291.18 591.06 293.99 591.04 C 302.85 591.46 311.75 590.32 320.56 591.54 C 320.38 594.18 320.94 597.61 318.31 599.26 C 315.09 600.53 311.53 600.14 308.14 600.20 C 308.20 603.04 308.24 605.90 308.27 608.75 C 315.02 609.19 322.45 607.04 328.70 610.31 C 334.94 614.32 332.07 622.60 332.94 628.72 C 342.41 628.68 351.88 629.04 361.35 628.56 C 362.40 623.56 363.89 618.32 367.73 614.71 C 371.48 610.88 377.56 609.23 382.57 611.42 C 385.89 613.00 387.03 616.81 388.49 619.91 C 392.65 618.25 396.81 616.59 400.92 614.83 C 418.80 606.65 436.77 598.63 455.33 592.11 C 459.85 590.75 464.17 588.83 468.59 587.20 M 308.37 619.28 C 308.43 622.45 308.41 625.62 308.34 628.80 C 312.90 629.42 317.53 629.45 322.10 628.90 C 322.30 625.71 323.19 622.22 321.82 619.21 C 317.42 618.08 312.82 618.90 308.37 619.28 M 281.89 641.24 C 283.84 644.47 285.65 648.23 289.10 650.10 C 291.70 650.54 294.36 650.38 297.00 650.41 C 327.35 650.34 357.70 650.48 388.04 650.33 C 393.24 650.65 396.21 645.53 398.13 641.46 C 389.79 640.32 381.38 640.73 373.00 640.69 C 358.33 640.83 343.67 640.64 329.00 640.72 C 313.30 640.75 297.56 640.17 281.89 641.24 Z" />
<path fill="#0d3748" opacity="1.00" d=" M 379.63 587.70 C 382.96 587.01 387.14 586.56 389.74 589.27 C 391.37 590.69 391.71 592.93 392.31 594.90 C 394.82 594.81 397.39 594.35 399.89 594.86 C 402.23 596.88 400.86 600.20 398.55 601.56 C 393.89 604.68 388.90 608.65 382.95 608.06 C 377.29 607.84 372.59 604.07 368.66 600.36 C 366.60 598.63 367.17 595.86 367.76 593.60 C 370.18 593.78 372.59 594.12 375.01 594.44 C 375.83 591.82 376.67 588.63 379.63 587.70 Z" />
<path fill="#0d3748" opacity="1.00" d=" M 606.35 705.93 C 609.73 703.52 613.95 702.21 617.92 704.04 C 625.34 710.62 632.54 717.61 637.92 726.02 C 639.95 730.57 641.45 735.33 642.99 740.07 C 643.49 741.79 643.93 743.52 644.38 745.28 C 639.43 745.86 634.46 746.35 629.48 746.44 C 629.04 746.28 628.15 745.97 627.71 745.82 C 629.76 742.65 631.51 738.86 630.11 735.06 C 627.30 726.59 620.74 719.96 613.65 714.83 C 610.16 715.87 607.48 718.45 604.89 720.87 C 600.55 725.02 596.34 729.68 594.46 735.50 C 593.35 738.76 594.62 742.09 595.92 745.08 C 596.05 745.52 596.32 746.42 596.46 746.87 C 592.29 746.87 588.12 746.85 583.96 746.66 C 583.57 746.44 582.81 746.02 582.43 745.81 C 583.05 740.66 583.42 735.38 585.32 730.50 C 590.02 720.58 598.21 713.03 606.35 705.93 Z" />
<path fill="#0d3748" opacity="1.00" d=" M 606.30 727.46 C 607.66 725.23 610.43 725.36 612.65 725.93 C 612.86 728.51 612.79 731.14 611.78 733.57 C 610.28 733.60 608.79 733.63 607.31 733.66 C 605.97 731.92 604.53 729.45 606.30 727.46 Z" />
<path fill="#0d3748" opacity="1.00" d=" M 193.33 747.22 C 194.78 743.73 197.18 740.00 201.15 739.18 C 207.14 737.27 213.72 743.75 211.57 749.81 C 207.48 761.34 201.53 772.11 196.22 783.10 C 200.81 780.09 205.25 776.86 209.80 773.81 C 214.89 770.37 219.44 766.13 224.78 763.07 C 228.38 760.88 233.48 761.40 236.09 764.89 C 239.00 767.81 237.67 772.31 236.53 775.74 C 233.10 785.15 228.82 794.26 225.88 803.86 C 230.50 800.10 235.55 796.92 240.20 793.19 C 244.56 789.96 248.59 786.19 253.44 783.70 C 258.45 780.72 266.10 784.98 265.47 791.02 C 265.10 797.15 259.21 800.55 254.72 803.73 C 243.15 812.22 231.14 820.07 219.52 828.49 C 215.62 831.12 211.31 835.01 206.25 833.85 C 200.81 832.72 198.47 826.16 200.57 821.35 C 204.50 811.54 209.00 801.90 212.04 791.76 C 202.89 797.66 193.92 803.86 184.85 809.90 C 181.10 812.63 175.08 812.92 172.04 808.99 C 169.19 805.82 169.90 801.02 171.57 797.46 C 178.74 780.68 186.30 764.06 193.33 747.22 Z" />
<path fill="#0d3748" opacity="1.00" d=" M 816.34 749.28 C 822.24 748.00 828.41 748.95 834.07 750.87 C 845.01 755.05 853.30 764.75 857.12 775.67 C 860.33 784.55 858.82 794.79 853.54 802.57 C 848.33 811.00 838.86 816.36 829.06 817.16 C 822.41 817.38 815.64 815.72 810.14 811.91 C 800.26 805.38 792.87 794.76 790.81 783.04 C 788.76 767.39 800.74 751.64 816.34 749.28 M 818.29 767.08 C 814.50 768.14 811.16 770.95 809.76 774.65 C 808.02 780.37 810.78 786.24 814.26 790.69 C 817.77 795.22 822.90 799.60 829.01 799.09 C 835.75 798.66 840.98 791.71 840.05 785.14 C 839.28 779.12 835.55 773.86 830.91 770.14 C 827.37 767.50 822.69 765.51 818.29 767.08 Z" />
<path fill="#0d3748" opacity="1.00" d=" M 756.04 787.08 C 759.99 783.04 767.12 784.32 770.18 788.83 C 779.09 800.64 787.17 813.07 796.07 824.91 C 798.84 828.85 802.27 832.50 803.81 837.17 C 805.94 842.94 800.11 849.71 794.08 848.75 C 790.97 848.73 788.84 846.18 786.99 844.02 C 781.59 837.06 776.98 829.50 771.30 822.77 C 771.28 831.86 772.98 840.89 772.59 849.99 C 772.57 852.44 770.58 854.31 768.57 855.41 C 765.08 856.56 761.15 855.80 758.11 853.83 C 752.25 850.10 746.96 845.54 740.95 842.05 C 744.29 849.42 747.24 856.96 750.70 864.27 C 752.36 867.82 753.55 872.48 750.71 875.78 C 747.86 879.96 741.49 880.37 737.69 877.30 C 735.13 874.28 733.81 870.47 732.15 866.93 C 727.01 854.52 721.33 842.34 716.26 829.89 C 714.70 826.04 712.55 822.21 712.47 817.97 C 712.25 813.43 716.44 809.27 720.97 809.53 C 725.60 809.44 729.30 812.60 732.88 815.11 C 739.72 820.36 746.90 825.15 753.89 830.19 C 753.93 818.78 753.50 807.37 753.22 795.96 C 753.07 792.81 753.38 789.20 756.04 787.08 Z" />
<path fill="#0d3748" opacity="1.00" d=" M 274.58 808.59 C 278.59 805.76 282.23 802.14 287.02 800.67 C 291.90 799.83 297.15 803.19 298.23 808.08 C 298.83 813.02 297.53 817.92 297.00 822.83 C 295.27 837.96 292.33 852.92 290.64 868.06 C 290.16 871.46 289.78 875.55 286.71 877.69 C 282.16 881.11 274.53 879.05 272.70 873.55 C 271.36 868.73 273.22 863.85 273.35 859.04 C 266.14 855.04 258.70 851.31 250.96 848.44 C 246.68 851.12 242.60 855.58 237.07 854.73 C 230.65 854.26 227.25 845.29 231.68 840.67 C 236.74 835.97 242.56 832.20 248.08 828.08 C 256.96 821.64 265.69 815.01 274.58 808.59 M 264.78 836.93 C 268.69 839.21 272.68 841.40 276.92 843.04 C 277.87 837.38 278.58 831.67 278.98 825.95 C 274.11 829.43 269.62 833.40 264.78 836.93 Z" />
<path fill="#0d3748" opacity="1.00" d=" M 315.92 829.17 C 313.66 824.25 317.34 817.46 322.97 817.44 C 327.76 817.38 331.83 820.39 336.21 821.95 C 342.30 824.50 348.40 827.06 354.58 829.40 C 358.07 830.88 362.26 832.36 363.81 836.19 C 366.46 841.61 360.97 848.65 355.09 847.67 C 351.34 847.04 348.03 845.01 344.67 843.35 C 338.31 857.76 332.00 872.20 325.58 886.59 C 324.37 889.18 322.88 891.80 320.47 893.45 C 317.00 895.33 312.25 894.29 309.87 891.15 C 306.89 887.94 307.81 883.10 309.42 879.46 C 313.04 871.35 316.81 863.31 320.17 855.09 C 322.69 848.76 326.36 842.90 328.12 836.28 C 323.77 834.58 318.54 833.43 315.92 829.17 Z" />
<path fill="#0d3748" opacity="1.00" d=" M 665.45 834.44 C 669.47 830.56 676.25 830.98 680.08 834.92 C 687.34 842.01 694.02 849.66 700.84 857.16 C 707.43 864.87 714.80 871.88 721.42 879.56 C 724.02 882.39 724.87 887.14 722.23 890.23 C 719.91 893.68 715.18 895.26 711.28 893.76 C 706.76 892.15 703.98 887.96 700.90 884.55 C 693.59 887.63 685.91 889.68 678.47 892.38 C 677.97 897.87 679.02 904.45 674.62 908.66 C 670.29 913.44 660.30 911.07 660.31 903.99 C 660.32 885.63 661.44 867.29 661.88 848.94 C 662.55 844.06 661.23 838.03 665.45 834.44 M 679.00 859.17 C 678.62 864.70 678.56 870.28 678.89 875.82 C 682.64 874.82 686.36 873.67 689.92 872.13 C 686.82 867.40 683.00 863.14 679.00 859.17 Z" />
<path fill="#0d3748" opacity="1.00" d=" M 376.38 847.26 C 377.50 843.75 379.82 839.67 383.98 839.57 C 389.39 839.34 394.29 842.09 399.45 843.28 C 404.32 844.79 409.61 845.27 414.08 847.85 C 418.53 850.50 419.01 857.68 414.63 860.62 C 410.70 864.63 404.97 861.43 400.43 860.52 C 397.35 860.10 394.16 858.05 391.15 858.83 C 389.77 862.36 388.75 866.04 387.93 869.75 C 393.46 871.34 400.55 871.63 403.82 877.12 C 406.87 881.79 402.32 888.36 397.01 888.00 C 392.34 887.78 387.87 886.12 383.64 884.26 C 381.61 887.61 380.28 891.35 379.31 895.13 C 380.75 897.16 383.80 897.09 386.00 898.03 C 391.24 899.89 397.52 900.18 401.59 904.36 C 405.84 909.84 399.73 919.04 393.01 917.02 C 384.32 914.88 375.91 911.72 367.21 909.55 C 361.75 908.45 358.30 902.43 360.25 897.16 C 365.73 880.56 371.21 863.96 376.38 847.26 Z" />
<path fill="#0d3748" opacity="1.00" d=" M 607.43 848.68 C 614.45 847.83 622.12 847.99 628.41 851.61 C 632.77 854.04 633.07 861.11 628.86 863.82 C 625.50 866.67 620.91 865.42 616.97 864.99 C 612.61 864.37 607.36 864.80 604.38 868.45 C 602.16 871.36 604.76 875.55 608.10 875.95 C 614.67 877.13 621.47 875.48 627.99 877.12 C 635.81 878.90 642.10 885.68 643.59 893.52 C 645.88 902.84 640.72 912.83 632.56 917.50 C 623.53 922.53 612.39 923.74 602.54 920.57 C 600.18 919.81 597.84 918.68 596.24 916.74 C 592.89 912.91 594.20 905.82 599.16 904.03 C 606.01 901.84 612.85 906.89 619.73 904.85 C 622.85 903.98 626.66 901.80 626.27 898.03 C 625.62 895.27 623.01 892.88 620.06 893.15 C 611.82 892.93 602.78 894.11 595.40 889.59 C 586.27 884.27 583.13 871.38 588.23 862.25 C 591.88 854.86 599.42 850.01 607.43 848.68 Z" />
<path fill="#0d3748" opacity="1.00" d=" M 430.49 861.74 C 431.25 857.41 434.32 853.14 438.95 852.68 C 444.69 852.46 450.29 854.15 455.95 854.84 C 460.87 855.81 466.79 855.45 470.33 859.65 C 474.22 864.08 470.92 872.16 465.05 872.51 C 458.95 872.58 453.02 870.75 446.95 870.58 C 445.25 874.17 445.35 878.30 444.72 882.16 C 448.79 882.62 452.86 883.20 456.80 884.34 C 460.09 885.18 462.91 888.49 462.26 892.02 C 462.01 895.06 459.81 897.80 456.83 898.55 C 451.73 899.50 446.69 897.52 441.60 897.71 C 441.19 901.52 440.00 905.20 439.52 909.00 L 440.10 909.75 C 446.20 911.05 452.41 911.79 458.58 912.74 C 462.22 913.34 465.72 916.13 465.81 920.06 C 466.63 924.96 461.86 929.46 457.04 928.84 C 448.58 928.40 440.29 926.47 431.90 925.43 C 428.54 924.74 424.56 924.62 422.18 921.79 C 419.27 918.88 419.95 914.36 420.73 910.72 C 424.47 894.49 427.16 878.05 430.49 861.74 Z" />
<path fill="#0d3748" opacity="1.00" d=" M 490.95 861.98 C 494.71 858.40 500.29 859.55 504.98 859.48 C 513.66 859.94 523.34 858.78 530.80 864.21 C 539.40 870.06 543.65 881.89 539.68 891.70 C 537.82 896.71 533.75 900.46 529.28 903.19 C 531.91 910.03 537.12 915.45 540.01 922.15 C 542.29 927.56 536.33 933.26 530.98 932.33 C 526.34 932.33 523.18 928.55 521.12 924.85 C 517.87 919.39 514.67 913.89 511.71 908.27 C 509.32 908.23 506.92 908.25 504.53 908.29 C 504.63 913.85 504.89 919.45 504.41 925.01 C 503.76 931.34 495.09 934.36 490.19 930.73 C 488.07 929.22 486.85 926.64 486.76 924.07 C 486.51 918.37 487.01 912.68 487.25 906.99 C 487.38 895.33 487.45 883.66 487.66 872.00 C 487.67 868.47 487.84 864.29 490.95 861.98 M 505.32 876.43 C 505.24 881.33 505.21 886.24 505.36 891.14 C 509.95 891.37 514.86 892.20 519.22 890.32 C 523.26 888.51 524.68 882.68 521.47 879.49 C 517.39 874.88 510.70 876.86 505.32 876.43 Z" />
</g>
<g id="#37d6feff">
<path fill="#37d6fe" opacity="1.00" d=" M 436.01 137.01 C 460.23 131.28 485.16 129.00 510.00 128.63 C 581.97 127.62 653.87 148.79 714.39 187.61 C 737.81 202.55 759.05 220.71 778.49 240.51 C 788.35 251.35 798.39 262.12 806.95 274.05 C 820.81 292.12 832.45 311.83 842.49 332.25 C 839.88 333.61 836.99 334.39 834.03 334.13 C 819.97 333.66 805.91 334.05 791.85 334.27 C 787.87 330.53 784.52 326.16 780.98 322.01 C 765.40 303.53 750.60 284.41 735.23 265.76 C 731.61 261.53 728.47 254.86 721.99 255.13 C 717.95 254.77 715.10 257.98 712.86 260.86 C 701.30 276.20 688.48 290.52 676.39 305.42 C 670.49 312.50 664.38 319.41 658.68 326.65 C 656.54 329.17 654.75 332.07 652.10 334.10 C 624.39 333.75 596.68 334.00 568.97 334.20 C 552.95 308.70 537.70 282.71 522.00 257.01 C 519.97 253.56 516.39 250.22 512.06 251.05 C 507.89 251.44 505.68 255.49 503.78 258.72 C 493.90 276.29 482.79 293.11 472.50 310.44 C 467.93 318.20 462.79 325.61 458.10 333.30 C 455.09 333.66 452.06 333.97 449.02 333.98 C 435.66 333.93 422.29 333.78 408.93 334.23 C 405.60 334.48 402.34 333.41 399.77 331.30 C 380.49 304.81 361.74 277.91 342.88 251.11 C 338.64 245.60 335.46 239.34 330.95 234.03 C 328.56 230.99 324.15 230.71 320.70 231.79 C 315.79 234.88 313.33 240.43 309.86 244.88 C 287.11 275.11 264.99 305.92 239.77 334.17 C 221.14 334.04 202.49 333.96 183.85 333.78 C 192.48 314.69 203.25 296.54 215.71 279.70 C 231.03 258.07 249.49 238.87 268.90 220.89 C 315.74 178.58 374.38 150.04 436.01 137.01 M 403.44 193.75 C 396.60 195.49 390.90 200.11 386.01 205.02 C 380.39 210.53 377.81 218.35 376.65 225.97 C 375.69 238.39 381.40 251.12 391.21 258.77 C 400.25 266.25 413.07 267.99 424.17 264.89 C 427.88 262.96 431.71 261.24 435.39 259.24 C 440.00 255.81 444.04 251.44 446.16 246.03 C 451.37 237.42 451.18 226.66 448.51 217.25 C 446.66 210.18 441.42 204.65 436.07 199.97 C 427.07 192.53 414.52 191.09 403.44 193.75 M 614.26 214.24 C 611.75 215.81 610.46 219.84 613.05 221.95 C 615.14 224.67 618.65 222.81 621.41 222.53 C 633.69 220.23 646.43 226.52 653.16 236.81 C 655.47 240.22 656.95 244.17 659.66 247.31 C 661.18 249.43 664.80 249.36 666.42 247.38 C 669.11 244.18 670.16 239.97 672.62 236.61 C 675.96 232.05 679.92 227.72 685.06 225.18 C 691.59 222.16 699.12 221.24 706.11 223.11 C 708.63 223.98 712.14 223.01 712.42 219.96 C 713.23 216.72 710.25 214.59 707.90 213.07 C 699.77 207.92 689.69 207.44 680.40 208.67 C 673.15 209.92 667.74 215.22 662.11 219.50 C 657.46 214.81 652.02 210.60 645.60 208.74 C 634.99 206.66 623.33 208.07 614.26 214.24 Z" />
<path fill="#37d6fe" opacity="1.00" d=" M 449.90 572.04 C 457.26 571.47 464.63 571.37 472.01 571.49 C 489.00 571.50 506.00 571.39 523.00 571.40 C 545.03 571.65 567.08 570.88 589.09 572.02 C 589.48 572.10 590.27 572.25 590.67 572.32 C 593.54 575.43 596.23 578.74 599.52 581.45 C 612.90 591.72 628.51 598.72 644.66 603.36 C 664.17 609.89 685.05 611.34 704.28 618.81 C 711.89 622.27 720.36 625.50 725.15 632.80 C 729.50 638.50 729.97 646.60 727.12 653.06 C 723.72 660.62 715.67 664.50 711.68 671.64 C 708.75 676.71 706.18 682.14 705.33 687.98 C 694.96 691.89 683.99 693.73 673.25 696.25 C 662.62 698.79 651.77 700.22 640.99 701.94 C 633.36 703.09 625.67 704.61 617.92 704.04 C 613.95 702.21 609.73 703.52 606.35 705.93 C 603.57 705.68 600.77 705.69 598.00 706.02 C 586.90 707.30 575.74 708.08 564.56 708.03 C 563.10 705.39 561.48 702.00 558.01 701.84 C 555.98 702.12 553.78 702.85 552.60 704.64 C 551.89 706.33 551.58 708.14 551.18 709.92 C 545.39 709.68 539.62 710.17 533.85 710.55 C 497.83 711.90 461.75 710.13 425.95 706.07 C 412.11 703.84 398.15 702.35 384.40 699.64 C 380.52 698.87 376.76 697.62 373.08 696.21 C 374.10 695.08 375.13 693.96 376.15 692.84 C 375.30 692.79 373.61 692.68 372.77 692.62 C 395.18 687.62 418.25 689.65 441.00 689.65 C 450.18 689.57 459.37 689.95 468.54 689.36 C 482.68 688.24 496.85 685.96 510.27 681.24 C 517.12 678.99 523.13 674.91 529.22 671.17 C 537.35 665.07 543.85 655.50 543.51 644.99 C 543.57 640.00 541.89 635.11 538.94 631.10 C 535.08 625.75 530.87 620.36 525.11 616.94 C 516.58 612.05 508.09 607.04 499.06 603.09 C 493.58 600.81 488.56 597.55 483.00 595.46 C 484.00 592.59 485.57 589.94 486.42 587.02 C 485.96 584.24 482.97 581.74 480.14 582.95 C 476.22 584.16 472.51 585.95 468.59 587.20 C 462.60 581.85 455.28 578.11 449.90 572.04 M 519.42 586.01 C 519.19 589.93 524.07 590.35 526.96 590.29 C 540.65 590.03 554.38 590.65 568.05 589.86 C 568.37 588.06 568.94 586.24 568.64 584.42 C 567.47 581.84 564.33 582.44 562.06 582.33 C 549.38 582.51 536.70 582.27 524.02 582.42 C 521.98 582.34 518.96 583.49 519.42 586.01 M 556.12 615.27 C 555.88 617.28 555.49 619.44 556.74 621.24 C 559.65 622.48 562.89 622.31 566.00 622.34 C 579.02 622.15 592.03 622.35 605.05 622.27 C 607.87 622.19 612.35 621.70 612.46 618.03 C 611.37 615.54 608.61 614.46 606.05 614.60 C 592.70 614.55 579.35 614.64 566.00 614.53 C 562.69 614.46 559.38 614.71 556.12 615.27 M 628.55 632.05 C 628.27 633.80 628.10 636.30 630.17 637.05 C 632.97 638.10 636.03 638.13 638.99 638.24 C 652.33 638.25 665.66 638.07 679.00 638.23 C 681.91 638.26 684.80 637.87 687.69 637.53 C 687.68 635.04 688.68 630.83 684.98 630.67 C 668.67 630.10 652.33 630.70 636.01 630.43 C 633.50 630.66 630.37 629.85 628.55 632.05 M 582.86 639.97 C 583.18 643.18 584.35 646.92 587.64 648.21 C 591.19 649.21 595.51 649.00 598.33 646.36 C 600.24 643.37 599.52 639.64 599.59 636.30 C 597.35 634.37 595.16 631.86 592.00 631.70 C 587.51 631.69 583.28 635.49 582.86 639.97 M 556.33 668.77 C 553.59 668.86 549.10 669.44 549.28 673.10 C 548.76 675.81 550.27 679.06 553.19 679.50 C 564.39 681.18 575.75 680.53 587.04 680.59 C 595.20 680.03 603.39 681.09 611.55 680.49 C 614.30 677.29 615.08 670.72 610.55 668.57 C 606.69 668.76 602.88 669.69 599.00 669.42 C 584.78 669.02 570.51 670.03 556.33 668.77 M 652.37 668.25 C 647.19 671.02 649.65 679.47 655.04 680.19 C 659.32 681.16 663.47 676.35 661.98 672.30 C 661.27 668.14 655.79 666.49 652.37 668.25 Z" />
<path fill="#37d6fe" opacity="1.00" d=" M 649.21 739.22 C 657.34 738.66 665.55 738.63 673.66 739.55 C 676.36 739.58 677.85 741.93 679.27 743.88 C 668.00 749.03 655.56 750.46 643.42 752.14 C 641.69 751.64 640.00 751.09 638.31 750.55 C 638.30 750.00 638.30 748.91 638.29 748.37 C 642.32 748.23 647.84 749.38 650.05 744.99 C 649.79 743.58 649.51 742.20 649.29 740.81 C 649.27 740.41 649.23 739.61 649.21 739.22 Z" />
</g>
<g id="#a6d9edff">
<path fill="#a6d9ed" opacity="1.00" d=" M 323.33 257.39 C 326.49 260.09 328.59 263.72 330.98 267.07 C 342.22 282.84 353.34 298.70 364.38 314.62 C 369.97 322.62 376.01 330.32 381.07 338.69 C 370.48 331.91 359.68 325.48 348.84 319.12 C 345.78 317.53 342.63 315.36 339.05 315.57 C 332.90 317.94 329.78 324.43 324.10 327.56 C 323.87 327.29 323.39 326.75 323.15 326.48 C 323.63 323.00 324.09 319.51 324.02 316.00 C 323.79 304.67 323.91 293.33 323.90 282.00 C 323.84 274.13 324.55 266.23 323.43 258.40 L 323.33 257.39 Z" />
<path fill="#a6d9ed" opacity="1.00" d=" M 513.69 281.65 C 516.40 283.96 518.06 287.16 519.89 290.16 C 531.18 309.12 542.74 327.91 554.23 346.74 C 561.43 359.06 569.43 370.91 576.54 383.27 C 576.70 383.66 577.02 384.46 577.17 384.86 C 567.11 378.19 556.88 371.77 546.69 365.30 C 542.48 362.73 538.45 359.61 533.62 358.30 C 531.76 357.75 529.72 358.08 528.14 359.18 C 521.96 363.00 518.29 369.52 512.96 374.28 C 512.34 373.66 511.72 373.04 511.10 372.43 C 511.42 372.18 512.05 371.69 512.37 371.44 C 513.83 366.12 512.59 360.45 512.88 355.00 C 513.24 330.55 512.75 306.08 513.69 281.65 Z" />
<path fill="#a6d9ed" opacity="1.00" d=" M 722.97 282.53 C 725.12 284.20 726.97 286.21 728.68 288.33 C 748.10 312.12 767.77 335.70 787.10 359.57 C 783.40 358.29 780.11 356.12 776.70 354.27 C 767.16 349.01 757.35 344.27 747.75 339.14 C 744.17 337.48 739.92 334.88 736.01 337.04 C 731.39 339.66 728.18 344.07 723.90 347.15 C 723.23 347.18 721.90 347.23 721.23 347.25 C 720.48 346.51 719.74 345.79 719.01 345.06 C 719.78 345.02 721.32 344.94 722.08 344.90 C 722.39 340.60 722.38 336.30 722.23 332.01 C 721.94 317.66 722.20 303.31 722.33 288.96 C 722.36 286.80 722.62 284.65 722.97 282.53 Z" />
</g>
<g id="#36b0cbff">
<path fill="#36b0cb" opacity="1.00" d=" M 305.58 315.67 C 307.79 314.79 310.25 315.51 312.02 316.99 C 315.86 319.99 319.30 323.48 323.15 326.48 C 323.39 326.75 323.87 327.29 324.10 327.56 C 323.47 332.98 322.99 338.61 324.75 343.87 C 323.91 350.55 322.94 357.47 319.16 363.22 C 313.20 372.50 306.83 381.50 300.52 390.54 C 298.45 393.75 295.75 396.60 292.22 398.20 C 293.62 393.05 295.99 388.26 298.76 383.72 C 301.77 379.03 300.36 373.05 302.91 368.16 C 304.04 366.35 303.59 364.39 302.61 362.63 C 297.53 366.00 291.85 368.34 286.84 371.84 C 269.60 383.74 251.83 394.85 234.30 406.33 C 231.84 408.01 229.00 409.11 226.03 409.45 C 217.81 405.02 208.83 402.41 199.92 399.78 C 218.43 382.56 236.30 364.64 254.00 346.59 L 254.65 346.40 C 258.47 345.49 261.20 342.45 264.56 340.62 C 274.03 335.19 282.99 328.95 292.32 323.30 C 296.67 320.65 300.77 317.45 305.58 315.67 Z" />
<path fill="#36b0cb" opacity="1.00" d=" M 399.77 331.30 C 402.34 333.41 405.60 334.48 408.93 334.23 C 422.29 333.78 435.66 333.93 449.02 333.98 C 452.06 333.97 455.09 333.66 458.10 333.30 C 452.11 344.09 444.51 353.88 438.18 364.47 C 433.81 364.92 429.42 365.07 425.04 365.09 C 415.97 354.32 408.16 342.58 399.77 331.30 Z" />
<path fill="#36b0cb" opacity="1.00" d=" M 842.49 332.25 C 847.12 341.92 850.73 352.05 854.54 362.07 C 853.53 365.35 849.70 364.64 847.05 364.85 C 837.39 364.79 827.74 364.95 818.08 364.94 C 809.23 354.81 800.11 344.88 791.85 334.27 C 805.91 334.05 819.97 333.66 834.03 334.13 C 836.99 334.39 839.88 333.61 842.49 332.25 Z" />
<path fill="#36b0cb" opacity="1.00" d=" M 179.35 343.52 C 180.84 340.28 181.63 336.65 183.85 333.78 C 202.49 333.96 221.14 334.04 239.77 334.17 C 230.11 344.10 220.64 354.22 210.98 364.14 C 205.08 365.53 198.99 364.76 193.00 364.89 C 185.82 364.74 178.58 365.71 171.48 364.35 C 174.11 357.41 176.23 350.27 179.35 343.52 Z" />
<path fill="#36b0cb" opacity="1.00" d=" M 568.97 334.20 C 596.68 334.00 624.39 333.75 652.10 334.10 C 650.71 336.33 649.08 338.39 647.29 340.30 C 640.07 348.16 633.09 356.23 625.87 364.06 C 621.00 365.26 615.95 364.89 611.00 364.83 C 603.24 364.66 595.47 365.13 587.72 364.50 C 581.47 354.40 574.99 344.44 568.97 334.20 Z" />
<path fill="#36b0cb" opacity="1.00" d=" M 696.65 339.64 C 700.19 337.83 704.25 334.87 708.38 336.60 C 712.49 338.60 715.71 341.98 719.01 345.06 C 719.74 345.79 720.48 346.51 721.23 347.25 C 721.90 347.23 723.23 347.18 723.90 347.15 C 723.59 347.40 722.97 347.90 722.66 348.15 C 720.53 354.82 722.83 361.78 722.29 368.56 C 720.90 373.20 717.56 376.92 714.87 380.86 C 710.76 386.38 706.75 392.00 702.07 397.05 C 698.97 400.33 696.59 404.65 692.07 406.17 C 695.47 398.58 699.18 391.05 701.41 383.02 C 701.35 381.41 701.60 378.07 699.04 378.88 C 692.70 380.50 687.45 384.70 681.86 387.91 C 666.33 397.95 650.88 408.13 634.89 417.45 C 629.41 411.81 623.51 406.56 618.30 400.69 C 618.58 398.11 621.34 396.76 622.84 394.85 C 632.69 384.20 642.70 373.70 652.24 362.77 L 652.80 362.66 C 655.87 362.25 658.65 360.83 661.36 359.39 C 673.32 353.18 685.12 346.64 696.65 339.64 Z" />
<path fill="#36b0cb" opacity="1.00" d=" M 485.95 360.94 C 489.01 359.29 492.77 356.53 496.23 358.78 C 502.15 362.16 506.19 367.85 511.10 372.43 C 511.72 373.04 512.34 373.66 512.96 374.28 L 512.90 375.02 C 512.07 380.00 512.37 385.04 512.31 390.06 C 512.21 396.80 508.08 402.44 505.40 408.37 C 500.48 418.81 494.74 428.83 488.64 438.62 C 485.33 443.41 482.40 448.65 477.70 452.24 C 478.93 445.90 483.34 440.56 483.64 433.99 C 483.79 430.40 484.26 426.54 482.76 423.17 C 481.09 419.94 476.78 419.66 473.74 420.89 C 470.62 422.21 467.93 424.33 465.16 426.25 C 450.55 436.71 435.34 446.30 420.73 456.76 C 406.25 466.72 391.37 476.06 376.88 486.01 C 373.26 486.73 369.49 486.01 365.90 486.96 C 362.66 487.80 359.57 489.14 356.36 490.07 C 355.38 485.10 352.77 480.71 351.24 475.95 C 352.32 472.32 356.27 470.44 358.73 467.75 C 368.86 457.85 379.63 448.65 389.88 438.88 C 406.43 423.78 422.49 408.16 439.07 393.09 C 441.45 391.12 443.15 388.32 445.86 386.77 C 449.50 385.38 452.48 382.83 455.66 380.65 C 465.79 374.13 475.77 367.37 485.95 360.94 Z" />
<path fill="#36b0cb" opacity="1.00" d=" M 430.32 513.08 C 437.41 507.61 444.84 502.56 452.37 497.71 C 452.04 500.01 451.40 502.27 450.28 504.31 C 447.03 510.46 443.33 516.36 439.43 522.12 C 436.96 519.30 434.14 516.77 430.87 514.91 C 430.74 514.45 430.46 513.54 430.32 513.08 Z" />
<path fill="#36b0cb" opacity="1.00" d=" M 556.33 668.77 C 570.51 670.03 584.78 669.02 599.00 669.42 C 602.88 669.69 606.69 668.76 610.55 668.57 C 615.08 670.72 614.30 677.29 611.55 680.49 C 603.39 681.09 595.20 680.03 587.04 680.59 C 575.75 680.53 564.39 681.18 553.19 679.50 C 550.27 679.06 548.76 675.81 549.28 673.10 C 549.10 669.44 553.59 668.86 556.33 668.77 M 551.38 674.98 C 552.26 677.20 554.57 678.55 556.94 678.39 C 571.96 678.44 586.98 678.32 602.00 678.44 C 605.28 678.52 608.57 678.21 611.82 677.66 C 612.02 676.14 612.32 674.62 612.29 673.09 C 610.39 670.49 606.90 670.47 604.01 670.49 C 588.32 670.61 572.63 670.46 556.95 670.52 C 554.41 670.33 551.20 672.14 551.38 674.98 Z" />
<path fill="#36b0cb" opacity="1.00" d=" M 673.25 696.25 C 683.99 693.73 694.96 691.89 705.33 687.98 C 704.82 696.09 707.12 704.26 711.89 710.85 C 703.43 713.63 694.65 715.13 685.95 716.91 C 683.91 715.82 681.68 714.78 679.32 715.38 C 674.38 716.28 668.76 716.94 665.45 721.19 C 656.48 723.81 647.13 724.66 637.92 726.02 C 632.54 717.61 625.34 710.62 617.92 704.04 C 625.67 704.61 633.36 703.09 640.99 701.94 C 651.77 700.22 662.62 698.79 673.25 696.25 Z" />
<path fill="#36b0cb" opacity="1.00" d=" M 326.84 706.69 C 341.36 699.79 357.06 695.76 372.77 692.62 C 373.61 692.68 375.30 692.79 376.15 692.84 C 375.13 693.96 374.10 695.08 373.08 696.21 C 376.76 697.62 380.52 698.87 384.40 699.64 C 398.15 702.35 412.11 703.84 425.95 706.07 C 461.75 710.13 497.83 711.90 533.85 710.55 C 539.62 710.17 545.39 709.68 551.18 709.92 C 553.07 711.76 555.02 714.31 558.01 713.89 C 561.63 714.36 563.01 710.49 564.56 708.03 C 575.74 708.08 586.90 707.30 598.00 706.02 C 600.77 705.69 603.57 705.68 606.35 705.93 C 598.21 713.03 590.02 720.58 585.32 730.50 C 582.57 730.97 579.81 731.33 577.03 731.34 C 563.99 731.23 551.05 733.65 538.00 733.34 C 530.64 733.01 523.35 734.39 515.99 734.26 C 509.50 734.26 502.99 734.47 496.53 733.70 C 489.41 732.85 482.22 733.87 475.11 732.99 C 470.09 732.35 465.02 732.40 459.98 732.12 C 435.46 730.08 411.01 727.21 386.69 723.43 C 369.08 719.05 351.16 715.99 333.56 711.55 C 330.67 710.99 328.68 708.79 326.84 706.69 Z" />
<path fill="#36b0cb" opacity="1.00" d=" M 595.92 745.08 C 596.39 745.93 596.87 746.78 597.37 747.64 C 602.97 747.69 608.58 747.60 614.19 747.63 C 619.30 747.74 624.55 748.15 629.48 746.44 C 634.46 746.35 639.43 745.86 644.38 745.28 C 646.26 745.12 648.15 745.04 650.05 744.99 C 647.84 749.38 642.32 748.23 638.29 748.37 C 638.30 748.91 638.30 750.00 638.31 750.55 C 640.00 751.09 641.69 751.64 643.42 752.14 C 629.44 754.92 615.19 755.88 601.01 757.05 C 591.62 757.44 582.19 757.77 572.84 756.64 C 566.13 756.00 558.50 756.57 552.98 752.01 C 551.64 751.17 551.57 749.56 551.82 748.18 C 553.34 746.40 555.68 745.75 557.94 745.69 C 566.62 745.34 575.33 745.59 583.96 746.66 C 588.12 746.85 592.29 746.87 596.46 746.87 C 596.32 746.42 596.05 745.52 595.92 745.08 Z" />
</g>
<g id="#195a74ff">
<path fill="#195a74" opacity="1.00" d=" M 324.10 327.56 C 329.78 324.43 332.90 317.94 339.05 315.57 C 342.63 315.36 345.78 317.53 348.84 319.12 C 359.68 325.48 370.48 331.91 381.07 338.69 C 389.89 351.11 399.37 363.11 408.97 374.97 C 411.83 379.60 416.42 383.21 418.01 388.55 C 411.78 391.57 408.18 397.67 403.26 402.26 C 399.54 406.24 395.01 409.32 391.24 413.24 C 388.68 415.88 386.15 418.57 383.15 420.71 C 376.90 410.82 369.56 401.69 362.66 392.27 C 353.16 378.84 343.32 365.68 333.29 352.65 C 330.91 349.31 328.41 345.91 324.75 343.87 C 322.99 338.61 323.47 332.98 324.10 327.56 Z" />
<path fill="#195a74" opacity="1.00" d=" M 736.01 337.04 C 739.92 334.88 744.17 337.48 747.75 339.14 C 757.35 344.27 767.16 349.01 776.70 354.27 C 780.11 356.12 783.40 358.29 787.10 359.57 L 787.66 359.78 C 795.30 368.64 804.29 376.24 811.71 385.30 C 816.60 390.33 821.94 394.99 825.87 400.87 C 820.02 403.37 813.97 405.36 808.28 408.18 C 802.39 411.15 796.17 413.73 791.27 418.27 C 785.85 423.19 779.37 426.99 774.84 432.84 C 773.43 434.59 771.95 436.28 770.38 437.87 C 768.56 434.08 766.46 430.41 763.89 427.08 C 758.09 419.66 753.67 411.32 748.36 403.57 C 742.25 394.91 737.15 385.58 730.99 376.95 C 728.40 372.86 724.82 369.31 723.16 364.70 C 722.06 359.26 722.83 353.66 722.66 348.15 C 722.97 347.90 723.59 347.40 723.90 347.15 C 728.18 344.07 731.39 339.66 736.01 337.04 Z" />
<path fill="#195a74" opacity="1.00" d=" M 528.14 359.18 C 529.72 358.08 531.76 357.75 533.62 358.30 C 538.45 359.61 542.48 362.73 546.69 365.30 C 556.88 371.77 567.11 378.19 577.17 384.86 C 577.02 384.46 576.70 383.66 576.54 383.27 C 579.22 385.74 580.51 389.39 583.50 391.59 C 589.39 396.01 593.21 402.46 598.67 407.33 C 606.40 415.28 614.63 422.75 621.81 431.20 C 625.84 435.50 629.95 439.72 634.21 443.78 C 635.27 445.01 636.95 446.15 636.76 447.99 C 636.50 450.76 634.64 453.01 633.32 455.36 C 630.95 459.04 629.36 463.16 628.27 467.38 C 626.94 472.77 624.10 477.65 622.85 483.07 C 621.29 487.65 620.72 492.77 617.76 496.73 C 615.05 496.65 612.44 495.80 609.78 495.37 C 601.94 494.01 593.56 495.58 586.83 499.88 C 582.90 502.34 580.25 506.22 577.37 509.74 C 576.53 506.26 575.09 502.94 573.06 499.99 C 568.68 493.47 565.61 486.20 561.55 479.51 C 551.13 461.41 541.56 442.85 531.41 424.61 C 526.77 416.49 522.92 407.95 518.00 399.99 C 515.91 396.24 513.08 392.53 513.08 388.05 C 513.00 383.70 513.04 379.36 512.90 375.02 L 512.96 374.28 C 518.29 369.52 521.96 363.00 528.14 359.18 Z" />
<path fill="#195a74" opacity="1.00" d=" M 270.27 415.23 C 274.78 412.30 278.96 408.50 284.43 407.50 C 284.23 410.49 283.67 413.47 282.37 416.19 C 280.18 420.95 278.27 425.89 275.21 430.18 C 272.41 434.16 268.07 436.59 264.05 439.15 C 260.00 435.40 256.76 430.90 252.75 427.11 C 258.39 422.87 264.38 419.12 270.27 415.23 Z" />
<path fill="#195a74" opacity="1.00" d=" M 325.40 419.28 C 330.17 417.60 335.52 419.53 338.67 423.34 C 342.96 428.40 347.93 432.85 351.88 438.19 C 353.62 440.52 355.71 442.55 357.89 444.47 C 352.40 449.99 346.53 455.14 340.93 460.56 C 337.30 457.03 334.59 452.62 330.59 449.46 C 326.43 446.11 321.79 443.38 316.92 441.20 C 311.13 438.61 304.70 438.45 298.52 437.48 C 307.76 431.80 314.54 422.22 325.40 419.28 Z" />
<path fill="#195a74" opacity="1.00" d=" M 697.52 440.49 C 704.54 435.43 710.58 428.40 719.17 426.01 C 725.73 424.22 731.82 428.35 736.36 432.64 C 740.83 436.46 743.79 442.05 749.25 444.66 C 739.45 444.37 730.02 449.43 724.21 457.19 C 723.56 457.62 722.34 459.94 721.75 458.39 C 718.27 452.17 712.66 446.50 705.25 445.67 C 696.14 443.48 689.52 452.19 680.79 452.76 C 686.53 448.90 692.28 445.04 697.52 440.49 Z" />
<path fill="#195a74" opacity="1.00" d=" M 462.52 468.52 C 464.61 467.21 467.28 469.73 466.77 471.94 C 465.89 476.12 463.43 479.74 461.63 483.56 C 459.00 488.53 457.10 494.27 452.37 497.71 C 444.84 502.56 437.41 507.61 430.32 513.08 C 430.46 513.54 430.74 514.45 430.87 514.91 C 424.57 511.40 417.29 511.02 410.28 511.80 C 408.76 510.19 408.08 508.04 407.23 506.05 C 411.69 503.75 415.62 500.63 419.67 497.71 C 428.85 491.61 437.67 484.98 446.79 478.79 C 452.00 475.32 456.73 471.00 462.52 468.52 Z" />
<path fill="#195a74" opacity="1.00" d=" M 502.65 481.63 C 509.45 478.96 518.03 479.22 523.66 484.36 C 530.51 490.49 536.63 497.39 542.80 504.21 C 551.23 512.79 558.32 523.08 568.96 529.16 C 570.38 530.19 571.87 529.08 573.17 528.42 C 573.40 533.97 574.62 539.39 575.40 544.87 C 576.68 552.69 578.14 560.77 582.55 567.53 C 584.03 569.85 586.80 570.73 589.09 572.02 C 567.08 570.88 545.03 571.65 523.00 571.40 C 506.00 571.39 489.00 571.50 472.01 571.49 C 464.63 571.37 457.26 571.47 449.90 572.04 C 448.35 572.11 446.79 572.16 445.24 572.21 C 444.16 560.82 444.88 549.39 444.87 537.98 C 444.90 534.62 444.15 531.33 443.10 528.17 C 445.41 529.68 447.99 528.37 450.05 527.08 C 463.55 518.59 474.03 506.38 485.11 495.11 C 490.48 490.07 495.62 484.36 502.65 481.63 Z" />
<path fill="#195a74" opacity="1.00" d=" M 642.99 740.07 C 645.08 740.32 647.18 740.56 649.29 740.81 C 649.51 742.20 649.79 743.58 650.05 744.99 C 648.15 745.04 646.26 745.12 644.38 745.28 C 643.93 743.52 643.49 741.79 642.99 740.07 Z" />
<path fill="#195a74" opacity="1.00" d=" M 365.05 786.81 C 400.82 792.43 436.85 796.83 473.05 798.09 C 484.34 799.19 495.68 798.80 507.00 798.96 C 520.67 799.08 534.34 799.00 548.02 798.76 C 584.87 797.15 621.61 793.30 658.12 788.06 C 651.33 792.73 643.13 794.82 635.43 797.55 C 602.83 808.96 568.50 815.02 534.04 816.76 C 499.43 818.14 464.67 815.21 430.72 808.35 C 417.37 804.84 403.73 802.25 390.83 797.21 C 382.19 793.91 373.03 791.59 365.05 786.81 Z" />
</g>
<g id="#2787a9ff">
<path fill="#2787a9" opacity="1.00" d=" M 324.75 343.87 C 328.41 345.91 330.91 349.31 333.29 352.65 C 343.32 365.68 353.16 378.84 362.66 392.27 C 369.56 401.69 376.90 410.82 383.15 420.71 C 376.01 426.68 369.80 433.68 362.74 439.74 C 361.02 441.21 359.41 442.80 357.89 444.47 C 355.71 442.55 353.62 440.52 351.88 438.19 C 347.93 432.85 342.96 428.40 338.67 423.34 C 335.52 419.53 330.17 417.60 325.40 419.28 C 314.54 422.22 307.76 431.80 298.52 437.48 C 295.44 438.56 292.13 438.82 289.05 439.90 C 282.75 442.07 277.29 446.04 272.00 450.00 C 269.20 446.49 266.43 442.95 264.05 439.15 C 268.07 436.59 272.41 434.16 275.21 430.18 C 278.27 425.89 280.18 420.95 282.37 416.19 C 283.67 413.47 284.23 410.49 284.43 407.50 C 278.96 408.50 274.78 412.30 270.27 415.23 C 264.38 419.12 258.39 422.87 252.75 427.11 C 248.21 423.73 243.86 420.07 239.11 416.97 C 234.94 414.13 230.32 412.07 226.03 409.45 C 229.00 409.11 231.84 408.01 234.30 406.33 C 251.83 394.85 269.60 383.74 286.84 371.84 C 291.85 368.34 297.53 366.00 302.61 362.63 C 303.59 364.39 304.04 366.35 302.91 368.16 C 300.36 373.05 301.77 379.03 298.76 383.72 C 295.99 388.26 293.62 393.05 292.22 398.20 C 295.75 396.60 298.45 393.75 300.52 390.54 C 306.83 381.50 313.20 372.50 319.16 363.22 C 322.94 357.47 323.91 350.55 324.75 343.87 Z" />
<path fill="#2787a9" opacity="1.00" d=" M 722.29 368.56 C 722.83 361.78 720.53 354.82 722.66 348.15 C 722.83 353.66 722.06 359.26 723.16 364.70 C 724.82 369.31 728.40 372.86 730.99 376.95 C 737.15 385.58 742.25 394.91 748.36 403.57 C 753.67 411.32 758.09 419.66 763.89 427.08 C 766.46 430.41 768.56 434.08 770.38 437.87 C 767.31 441.01 764.68 444.54 761.84 447.88 C 761.05 448.48 760.33 450.07 759.16 449.57 C 755.78 448.10 752.63 446.12 749.25 444.66 C 743.79 442.05 740.83 436.46 736.36 432.64 C 731.82 428.35 725.73 424.22 719.17 426.01 C 710.58 428.40 704.54 435.43 697.52 440.49 C 692.28 445.04 686.53 448.90 680.79 452.76 C 678.87 453.79 676.94 456.17 674.59 455.42 C 671.78 452.22 669.77 448.31 666.42 445.59 C 663.10 442.65 658.16 442.25 655.31 438.69 C 648.79 431.34 641.55 424.67 634.89 417.45 C 650.88 408.13 666.33 397.95 681.86 387.91 C 687.45 384.70 692.70 380.50 699.04 378.88 C 701.60 378.07 701.35 381.41 701.41 383.02 C 699.18 391.05 695.47 398.58 692.07 406.17 C 696.59 404.65 698.97 400.33 702.07 397.05 C 706.75 392.00 710.76 386.38 714.87 380.86 C 717.56 376.92 720.90 373.20 722.29 368.56 Z" />
<path fill="#2787a9" opacity="1.00" d=" M 854.54 362.07 C 858.10 371.36 860.83 380.94 863.44 390.54 C 863.97 392.59 864.18 394.70 864.34 396.82 C 859.25 396.89 854.16 397.76 849.09 397.20 C 845.91 395.40 843.71 392.38 841.17 389.84 C 833.26 381.74 825.73 373.29 818.08 364.94 C 827.74 364.95 837.39 364.79 847.05 364.85 C 849.70 364.64 853.53 365.35 854.54 362.07 Z" />
<path fill="#2787a9" opacity="1.00" d=" M 162.07 396.72 C 164.37 385.72 167.68 374.92 171.48 364.35 C 178.58 365.71 185.82 364.74 193.00 364.89 C 198.99 364.76 205.08 365.53 210.98 364.14 C 203.33 372.43 194.92 379.97 187.13 388.13 C 184.03 391.04 181.41 394.55 177.81 396.89 C 172.65 398.08 167.28 397.07 162.07 396.72 Z" />
<path fill="#2787a9" opacity="1.00" d=" M 425.04 365.09 C 429.42 365.07 433.81 364.92 438.18 364.47 C 436.10 367.39 434.51 370.70 431.93 373.23 C 428.44 371.86 427.19 367.86 425.04 365.09 Z" />
<path fill="#2787a9" opacity="1.00" d=" M 587.72 364.50 C 595.47 365.13 603.24 364.66 611.00 364.83 C 615.95 364.89 621.00 365.26 625.87 364.06 C 619.06 371.67 613.02 380.15 604.99 386.54 C 598.40 379.89 592.77 372.36 587.72 364.50 Z" />
<path fill="#2787a9" opacity="1.00" d=" M 512.31 390.06 C 512.37 385.04 512.07 380.00 512.90 375.02 C 513.04 379.36 513.00 383.70 513.08 388.05 C 513.08 392.53 515.91 396.24 518.00 399.99 C 522.92 407.95 526.77 416.49 531.41 424.61 C 541.56 442.85 551.13 461.41 561.55 479.51 C 565.61 486.20 568.68 493.47 573.06 499.99 C 575.09 502.94 576.53 506.26 577.37 509.74 C 573.29 515.05 572.68 521.97 573.17 528.42 C 571.87 529.08 570.38 530.19 568.96 529.16 C 558.32 523.08 551.23 512.79 542.80 504.21 C 536.63 497.39 530.51 490.49 523.66 484.36 C 518.03 479.22 509.45 478.96 502.65 481.63 C 495.62 484.36 490.48 490.07 485.11 495.11 C 474.03 506.38 463.55 518.59 450.05 527.08 C 447.99 528.37 445.41 529.68 443.10 528.17 C 441.69 526.27 440.58 524.18 439.43 522.12 C 443.33 516.36 447.03 510.46 450.28 504.31 C 451.40 502.27 452.04 500.01 452.37 497.71 C 457.10 494.27 459.00 488.53 461.63 483.56 C 463.43 479.74 465.89 476.12 466.77 471.94 C 467.28 469.73 464.61 467.21 462.52 468.52 C 456.73 471.00 452.00 475.32 446.79 478.79 C 437.67 484.98 428.85 491.61 419.67 497.71 C 415.62 500.63 411.69 503.75 407.23 506.05 C 403.64 500.12 398.88 494.78 392.88 491.23 C 387.95 488.42 382.34 487.28 376.88 486.01 C 391.37 476.06 406.25 466.72 420.73 456.76 C 435.34 446.30 450.55 436.71 465.16 426.25 C 467.93 424.33 470.62 422.21 473.74 420.89 C 476.78 419.66 481.09 419.94 482.76 423.17 C 484.26 426.54 483.79 430.40 483.64 433.99 C 483.34 440.56 478.93 445.90 477.70 452.24 C 482.40 448.65 485.33 443.41 488.64 438.62 C 494.74 428.83 500.48 418.81 505.40 408.37 C 508.08 402.44 512.21 396.80 512.31 390.06 Z" />
<path fill="#2787a9" opacity="1.00" d=" M 282.84 739.47 C 295.68 726.36 310.44 715.00 326.84 706.69 C 328.68 708.79 330.67 710.99 333.56 711.55 C 351.16 715.99 369.08 719.05 386.69 723.43 C 411.01 727.21 435.46 730.08 459.98 732.12 C 465.02 732.40 470.09 732.35 475.11 732.99 C 482.22 733.87 489.41 732.85 496.53 733.70 C 502.99 734.47 509.50 734.26 515.99 734.26 C 523.35 734.39 530.64 733.01 538.00 733.34 C 551.05 733.65 563.99 731.23 577.03 731.34 C 579.81 731.33 582.57 730.97 585.32 730.50 C 583.42 735.38 583.05 740.66 582.43 745.81 C 582.81 746.02 583.57 746.44 583.96 746.66 C 575.33 745.59 566.62 745.34 557.94 745.69 C 555.68 745.75 553.34 746.40 551.82 748.18 C 551.57 749.56 551.64 751.17 552.98 752.01 C 558.50 756.57 566.13 756.00 572.84 756.64 C 582.19 757.77 591.62 757.44 601.01 757.05 C 615.19 755.88 629.44 754.92 643.42 752.14 C 655.56 750.46 668.00 749.03 679.27 743.88 C 677.85 741.93 676.36 739.58 673.66 739.55 C 665.55 738.63 657.34 738.66 649.21 739.22 C 649.23 739.61 649.27 740.41 649.29 740.81 C 647.18 740.56 645.08 740.32 642.99 740.07 C 641.45 735.33 639.95 730.57 637.92 726.02 C 647.13 724.66 656.48 723.81 665.45 721.19 C 666.61 722.60 667.73 724.06 669.14 725.26 C 674.76 725.25 680.19 723.33 685.47 721.56 C 685.62 720.00 685.78 718.45 685.95 716.91 C 694.65 715.13 703.43 713.63 711.89 710.85 C 717.04 718.01 723.53 724.11 730.40 729.61 C 734.88 733.19 739.24 737.11 744.59 739.40 C 723.04 755.27 700.41 769.93 676.01 781.04 C 670.19 783.69 664.40 786.69 658.12 788.06 C 621.61 793.30 584.87 797.15 548.02 798.76 C 534.34 799.00 520.67 799.08 507.00 798.96 C 495.68 798.80 484.34 799.19 473.05 798.09 C 436.85 796.83 400.82 792.43 365.05 786.81 C 344.79 778.95 325.61 768.43 307.41 756.59 C 299.28 750.80 290.59 745.79 282.84 739.47 M 358.35 727.39 C 355.20 728.38 352.76 731.57 353.22 734.95 C 353.20 740.07 359.14 743.81 363.83 741.77 C 368.59 740.15 369.84 733.78 367.03 729.92 C 365.21 727.06 361.36 726.73 358.35 727.39 M 411.37 746.17 C 409.32 747.73 410.00 751.64 412.43 752.57 C 414.81 753.58 417.47 753.32 420.01 753.40 C 432.01 753.29 444.01 753.48 456.01 753.54 C 458.29 753.42 461.51 753.52 462.50 750.95 C 463.28 748.14 460.91 745.28 458.03 745.50 C 444.01 745.30 429.99 745.48 415.98 745.35 C 414.45 745.52 412.63 745.10 411.37 746.17 M 501.33 748.25 C 499.38 749.07 499.14 752.03 499.82 753.86 C 501.09 755.93 503.81 755.81 505.94 755.91 C 515.31 755.92 524.68 755.82 534.05 755.82 C 535.59 755.66 537.57 755.98 538.61 754.51 C 540.20 752.90 539.40 750.36 538.29 748.73 C 536.05 747.52 533.45 747.70 531.00 747.70 C 522.66 747.91 514.31 747.62 505.97 747.62 C 504.40 747.64 502.79 747.63 501.33 748.25 Z" />
<path fill="#2787a9" opacity="1.00" d=" M 614.27 746.21 C 618.77 746.74 623.22 745.60 627.71 745.82 C 628.15 745.97 629.04 746.28 629.48 746.44 C 624.55 748.15 619.30 747.74 614.19 747.63 C 614.21 747.28 614.25 746.57 614.27 746.21 Z" />
</g>
<g id="#7ccc4eff">
<path fill="#7ccc4e" opacity="1.00" d=" M 153.84 446.81 C 154.58 438.80 155.22 430.76 156.76 422.86 C 156.85 423.34 157.03 424.28 157.13 424.76 C 165.05 424.54 172.94 425.16 180.85 425.60 C 203.18 427.31 224.19 438.39 239.45 454.59 C 246.62 461.51 251.40 470.39 255.77 479.23 C 259.52 487.02 261.01 495.65 262.32 504.14 C 262.55 510.75 262.35 517.39 262.25 524.01 C 262.33 528.62 260.00 532.73 257.18 536.19 C 251.80 533.12 246.18 530.50 240.31 528.53 C 239.99 527.29 239.67 526.05 239.32 524.83 C 238.42 522.00 236.14 519.23 232.96 519.10 C 229.12 518.54 226.42 521.81 223.76 524.00 C 219.80 522.77 215.67 521.81 212.10 519.63 C 211.08 517.29 213.68 515.58 214.86 513.87 C 217.51 511.51 220.27 509.28 222.91 506.91 C 226.62 503.62 231.02 501.10 234.29 497.33 C 236.47 495.03 236.52 491.06 234.27 488.80 C 231.81 485.82 226.98 485.65 224.14 488.16 C 219.63 491.87 215.77 496.32 211.24 500.02 C 210.99 493.13 211.24 486.19 210.46 479.34 C 209.47 474.34 202.54 472.81 198.85 475.84 C 196.98 477.69 196.35 480.42 196.35 482.98 C 196.22 488.74 196.51 494.52 196.04 500.28 C 190.76 496.39 186.78 490.31 180.10 488.68 C 174.55 487.45 170.53 483.19 166.36 479.66 C 160.94 475.05 157.44 468.67 154.86 462.15 C 152.98 457.25 153.70 451.91 153.84 446.81 Z" />
<path fill="#7ccc4e" opacity="1.00" d=" M 802.61 445.70 C 816.00 435.03 832.15 427.40 849.29 425.58 C 856.25 425.33 863.20 425.03 870.16 424.63 C 871.87 432.93 872.65 441.41 873.07 449.86 C 872.76 462.77 866.62 475.44 856.55 483.54 C 850.39 488.52 843.93 493.12 837.33 497.50 C 837.03 491.37 837.64 485.20 836.78 479.12 C 835.17 473.47 825.34 472.27 823.43 478.34 C 822.01 485.45 822.71 492.79 822.68 499.99 C 818.33 496.49 814.81 492.07 810.43 488.61 C 808.17 486.73 804.98 485.79 802.16 486.84 C 799.67 487.85 798.59 490.65 798.33 493.14 C 798.15 495.92 800.26 498.10 802.15 499.85 C 808.07 504.92 813.79 510.23 819.86 515.15 C 818.32 519.78 813.10 520.19 809.09 521.30 C 806.33 519.46 802.78 518.22 799.56 519.60 C 797.33 520.51 796.70 523.06 795.59 524.95 C 794.59 527.94 791.35 528.67 788.77 529.74 C 784.73 531.23 780.90 533.18 777.09 535.15 C 775.58 532.47 773.57 529.99 772.80 526.97 C 772.25 522.34 772.72 517.65 772.62 513.00 C 772.75 507.25 772.01 501.52 772.40 495.78 C 772.65 497.56 773.02 499.32 773.40 501.08 C 773.89 496.83 774.36 492.57 775.33 488.40 C 776.89 480.57 780.88 473.52 784.72 466.62 C 789.84 459.00 795.43 451.52 802.61 445.70 Z" />
<path fill="#7ccc4e" opacity="1.00" d=" M 312.66 458.29 C 316.17 459.91 319.41 462.12 321.98 465.02 C 328.74 472.46 333.33 481.61 337.04 490.88 L 337.21 491.52 C 333.63 491.51 329.85 490.94 326.47 492.45 C 320.54 494.82 316.39 499.86 312.02 504.28 C 311.64 496.10 312.62 487.86 311.39 479.75 C 309.89 477.71 307.70 475.76 304.99 476.02 C 301.99 475.72 299.54 478.07 298.59 480.73 C 297.45 488.16 298.32 495.72 297.89 503.20 C 291.45 497.45 285.77 490.58 278.04 486.51 C 277.49 481.42 277.29 476.20 278.31 471.16 C 279.05 467.51 281.62 464.70 284.20 462.19 C 286.30 463.97 288.27 466.47 291.21 466.73 C 294.97 467.12 298.37 465.18 301.62 463.59 C 305.25 461.71 309.11 460.31 312.66 458.29 Z" />
<path fill="#7ccc4e" opacity="1.00" d=" M 655.54 459.79 C 655.93 460.13 656.72 460.82 657.12 461.16 C 657.46 483.44 656.79 505.72 656.88 528.00 C 656.63 537.06 657.34 546.15 656.29 555.18 C 651.22 555.13 646.11 555.86 641.08 555.04 C 639.67 555.07 639.80 553.32 639.41 552.40 C 638.17 545.98 635.85 539.64 636.60 532.99 C 638.00 514.49 643.45 496.60 649.01 478.99 C 650.95 472.51 653.86 466.36 655.54 459.79 Z" />
<path fill="#7ccc4e" opacity="1.00" d=" M 748.06 463.70 C 748.39 463.98 749.05 464.53 749.39 464.80 C 749.95 469.85 749.66 474.94 749.66 480.02 C 749.59 498.01 749.67 516.01 749.61 534.00 C 749.56 540.97 749.88 547.94 749.30 554.89 C 745.87 554.96 742.43 555.41 739.02 555.04 C 736.91 555.13 736.37 552.87 735.51 551.42 C 733.37 547.29 732.08 542.71 732.41 538.03 C 732.67 529.46 731.90 520.85 732.52 512.31 C 735.56 495.52 740.74 479.12 748.06 463.70 Z" />
<path fill="#7ccc4e" opacity="1.00" d=" M 697.25 482.33 C 699.27 476.81 701.02 471.06 704.74 466.39 C 705.33 469.21 705.89 472.06 706.00 474.96 C 706.58 488.96 706.24 502.99 706.34 517.00 C 706.25 529.63 706.56 542.26 706.09 554.87 C 704.80 554.81 703.52 554.76 702.24 554.73 C 699.54 554.62 696.80 554.80 694.16 554.23 C 691.48 551.84 690.14 548.36 688.71 545.15 C 685.07 535.38 687.24 524.84 688.55 514.83 C 690.69 503.82 693.40 492.88 697.25 482.33 Z" />
<path fill="#7ccc4e" opacity="1.00" d=" M 358.12 512.32 C 361.89 504.09 372.64 501.93 380.63 504.50 C 387.47 507.13 392.02 513.52 394.55 520.15 C 393.02 522.66 390.62 524.43 388.75 526.65 C 387.90 528.63 388.10 530.86 387.96 532.98 C 387.92 540.32 387.52 547.66 387.04 555.00 C 385.32 555.13 383.61 555.26 381.90 555.42 C 381.93 544.60 381.64 533.78 381.69 522.97 C 381.83 519.74 380.41 515.73 376.85 515.05 C 372.84 513.68 368.91 517.33 368.61 521.23 C 368.20 532.57 368.91 543.95 368.22 555.28 C 366.52 555.10 364.83 554.96 363.14 554.81 C 363.15 546.52 363.34 538.22 362.94 529.93 C 363.03 525.57 359.32 522.69 357.82 518.92 C 357.45 516.72 357.80 514.50 358.12 512.32 Z" />
<path fill="#7ccc4e" opacity="1.00" d=" M 609.59 513.68 C 612.20 515.68 614.95 517.81 616.17 521.00 C 616.19 522.22 616.21 523.45 616.21 524.68 C 614.21 525.76 611.80 526.49 610.47 528.46 C 608.97 531.02 608.87 534.09 608.71 536.98 C 608.55 543.01 608.94 549.03 609.08 555.06 C 605.14 555.00 601.09 555.90 597.24 554.93 C 594.86 551.95 594.02 548.12 593.16 544.50 C 596.87 542.71 600.67 540.79 603.48 537.69 C 603.45 535.71 600.81 535.40 599.61 534.22 C 596.10 532.50 595.77 527.69 597.65 524.64 C 600.24 520.23 604.84 517.52 609.35 515.40 C 609.41 514.97 609.53 514.11 609.59 513.68 Z" />
<path fill="#7ccc4e" opacity="1.00" d=" M 413.83 533.97 C 418.14 534.98 422.52 535.70 426.94 536.10 L 427.81 536.19 C 428.05 539.22 428.21 542.26 428.17 545.31 C 423.30 544.55 418.61 542.99 414.17 540.88 C 414.07 538.57 413.96 536.27 413.83 533.97 Z" />
<path fill="#7ccc4e" opacity="1.00" d=" M 394.73 628.57 C 396.61 627.14 398.59 625.82 400.75 624.83 C 400.37 625.96 399.99 627.09 399.62 628.24 C 405.48 628.60 411.37 628.20 417.22 628.69 C 409.72 628.89 402.22 628.78 394.73 628.57 Z" />
</g>
<g id="#3d8335ff">
<path fill="#3d8335" opacity="1.00" d=" M 152.58 464.25 C 153.65 458.47 152.77 452.56 153.84 446.81 C 153.70 451.91 152.98 457.25 154.86 462.15 C 157.44 468.67 160.94 475.05 166.36 479.66 C 170.53 483.19 174.55 487.45 180.10 488.68 C 177.06 488.78 174.31 490.95 173.95 494.06 C 173.07 497.91 176.14 500.95 178.77 503.25 C 184.22 507.76 189.15 512.85 194.66 517.30 C 196.47 518.57 195.89 521.06 196.11 522.97 C 195.95 533.88 196.09 544.80 195.73 555.72 C 184.23 555.53 172.73 556.08 161.23 555.70 C 158.68 546.41 156.76 536.95 155.61 527.39 C 152.68 506.48 151.59 485.33 152.58 464.25 Z" />
<path fill="#3d8335" opacity="1.00" d=" M 873.07 449.86 C 873.38 451.20 873.69 452.55 873.74 453.95 C 873.94 465.43 875.15 476.89 874.49 488.39 C 874.14 508.78 871.65 529.15 866.98 549.02 C 866.48 551.08 866.05 553.19 865.18 555.14 C 864.02 556.02 862.40 555.62 861.06 555.81 C 853.14 555.77 845.22 555.79 837.30 555.70 C 837.47 536.30 836.91 516.90 837.33 497.50 C 843.93 493.12 850.39 488.52 856.55 483.54 C 866.62 475.44 872.76 462.77 873.07 449.86 Z" />
<path fill="#3d8335" opacity="1.00" d=" M 657.12 461.16 C 662.13 466.64 664.14 473.97 665.97 480.99 C 668.25 489.79 668.70 498.94 668.80 508.00 C 668.82 519.02 668.78 530.03 668.69 541.05 C 668.64 545.81 667.92 551.00 664.62 554.67 C 661.94 555.55 659.06 555.15 656.29 555.18 C 657.34 546.15 656.63 537.06 656.88 528.00 C 656.79 505.72 657.46 483.44 657.12 461.16 Z" />
<path fill="#3d8335" opacity="1.00" d=" M 704.77 464.64 C 707.56 466.41 709.80 468.94 710.98 472.05 C 719.74 493.29 717.50 516.65 717.73 539.06 C 717.98 544.74 715.79 550.13 712.87 554.89 C 710.60 554.89 708.34 554.90 706.09 554.87 C 706.56 542.26 706.25 529.63 706.34 517.00 C 706.24 502.99 706.58 488.96 706.00 474.96 C 705.89 472.06 705.33 469.21 704.74 466.39 C 704.75 465.95 704.76 465.08 704.77 464.64 Z" />
<path fill="#3d8335" opacity="1.00" d=" M 749.39 464.80 C 753.57 468.13 755.10 473.50 756.58 478.41 C 761.65 497.54 759.38 517.49 760.29 537.03 C 760.16 542.86 761.26 549.50 757.49 554.49 C 754.96 555.75 751.99 554.96 749.30 554.89 C 749.88 547.94 749.56 540.97 749.61 534.00 C 749.67 516.01 749.59 498.01 749.66 480.02 C 749.66 474.94 749.95 469.85 749.39 464.80 Z" />
<path fill="#3d8335" opacity="1.00" d=" M 311.39 479.75 C 312.62 487.86 311.64 496.10 312.02 504.28 C 316.39 499.86 320.54 494.82 326.47 492.45 C 329.85 490.94 333.63 491.51 337.21 491.52 L 337.04 490.88 C 340.49 497.48 340.97 505.13 341.50 512.42 C 341.88 524.61 341.48 536.82 341.70 549.02 C 341.65 551.09 341.91 553.25 341.28 555.27 C 339.61 555.89 337.77 555.68 336.03 555.74 C 328.14 555.56 320.25 555.72 312.36 555.61 C 311.24 539.44 312.49 523.20 311.72 507.02 C 311.04 497.94 311.45 488.83 311.39 479.75 Z" />
<path fill="#3d8335" opacity="1.00" d=" M 297.89 503.20 C 298.32 495.72 297.45 488.16 298.59 480.73 C 298.63 487.17 298.73 493.61 298.60 500.05 C 297.40 518.54 298.68 537.10 297.57 555.60 C 293.88 555.54 289.29 556.68 286.53 553.51 C 281.91 548.02 278.32 541.31 277.88 534.04 C 277.32 526.04 277.76 518.02 277.65 510.01 C 277.81 502.18 277.26 494.32 278.04 486.51 C 285.77 490.58 291.45 497.45 297.89 503.20 Z" />
<path fill="#3d8335" opacity="1.00" d=" M 357.31 512.19 L 358.12 512.32 C 357.80 514.50 357.45 516.72 357.82 518.92 C 359.32 522.69 363.03 525.57 362.94 529.93 C 363.34 538.22 363.15 546.52 363.14 554.81 C 364.83 554.96 366.52 555.10 368.22 555.28 L 369.30 555.39 C 365.38 556.05 361.40 555.67 357.45 555.52 C 357.23 541.08 357.40 526.63 357.31 512.19 Z" />
<path fill="#3d8335" opacity="1.00" d=" M 211.37 517.16 C 211.45 515.31 213.62 514.80 214.86 513.87 C 213.68 515.58 211.08 517.29 212.10 519.63 C 215.67 521.81 219.80 522.77 223.76 524.00 C 219.59 527.66 215.37 531.26 211.20 534.93 C 211.30 529.00 211.00 523.07 211.37 517.16 Z" />
<path fill="#3d8335" opacity="1.00" d=" M 819.86 515.15 C 820.70 516.31 821.84 517.42 821.81 518.99 C 822.07 523.25 822.02 527.56 821.59 531.81 C 819.94 532.66 819.06 530.91 818.07 529.94 C 815.41 526.72 812.17 524.09 809.09 521.30 C 813.10 520.19 818.32 519.78 819.86 515.15 Z" />
<path fill="#3d8335" opacity="1.00" d=" M 394.55 520.15 C 397.36 528.78 397.87 538.05 397.04 547.04 C 396.86 550.40 395.02 553.29 392.86 555.76 C 389.20 555.72 385.53 555.91 381.90 555.42 C 383.61 555.26 385.32 555.13 387.04 555.00 C 387.52 547.66 387.92 540.32 387.96 532.98 C 388.10 530.86 387.90 528.63 388.75 526.65 C 390.62 524.43 393.02 522.66 394.55 520.15 Z" />
<path fill="#3d8335" opacity="1.00" d=" M 616.17 521.00 C 617.91 526.48 617.64 532.32 617.75 538.01 C 617.60 543.15 617.85 548.64 615.38 553.33 C 614.39 555.87 611.18 554.91 609.08 555.06 C 608.94 549.03 608.55 543.01 608.71 536.98 C 608.87 534.09 608.97 531.02 610.47 528.46 C 611.80 526.49 614.21 525.76 616.21 524.68 C 616.21 523.45 616.19 522.22 616.17 521.00 Z" />
<path fill="#3d8335" opacity="1.00" d=" M 239.32 524.83 C 239.67 526.05 239.99 527.29 240.31 528.53 C 246.18 530.50 251.80 533.12 257.18 536.19 C 250.98 546.42 240.40 555.30 227.95 555.67 C 222.77 555.75 217.53 556.19 212.38 555.46 C 210.14 554.96 211.83 552.77 212.95 552.00 C 220.97 545.34 229.17 538.89 236.95 531.97 C 239.18 530.26 239.35 527.40 239.32 524.83 Z" />
<path fill="#3d8335" opacity="1.00" d=" M 788.77 529.74 C 791.35 528.67 794.59 527.94 795.59 524.95 C 796.06 530.60 801.75 533.07 805.14 536.85 C 809.94 542.09 815.92 546.05 820.76 551.24 C 822.02 552.36 821.81 554.16 822.11 555.68 C 817.06 555.88 812.01 555.84 806.96 555.77 C 793.76 556.36 783.32 545.71 777.09 535.15 C 780.90 533.18 784.73 531.23 788.77 529.74 Z" />
<path fill="#3d8335" opacity="1.00" d=" M 413.44 555.51 C 413.55 548.34 412.70 541.07 413.83 533.97 C 413.96 536.27 414.07 538.57 414.17 540.88 C 418.61 542.99 423.30 544.55 428.17 545.31 C 428.37 548.84 428.24 552.38 427.88 555.90 C 423.06 555.91 418.25 555.75 413.44 555.51 Z" />
</g>
<g id="#fbb17cff">
<path fill="#fbb17c" opacity="1.00" d=" M 609.86 571.95 C 623.58 571.57 637.29 572.33 651.00 572.20 C 720.97 572.18 790.95 572.11 860.92 572.28 C 860.58 573.80 860.25 575.32 859.91 576.84 C 841.28 582.21 822.31 586.25 803.36 590.27 C 795.87 591.86 787.05 592.47 782.10 599.16 C 783.88 600.21 785.75 601.38 787.93 601.25 C 799.24 601.26 810.58 600.91 821.89 601.46 C 825.93 602.05 831.17 602.76 833.09 606.92 C 834.62 609.73 831.48 612.10 829.32 613.31 C 818.47 618.62 806.32 620.49 795.27 625.28 C 789.40 627.68 788.74 635.32 783.23 638.21 C 777.47 641.42 771.10 643.34 765.14 646.13 C 756.77 649.52 749.02 654.20 740.81 657.95 C 742.47 649.96 744.29 641.33 741.47 633.41 C 735.10 620.31 721.89 612.42 708.84 607.16 C 692.66 601.26 675.35 599.64 658.83 594.92 C 641.55 589.82 623.13 584.93 609.86 571.95 Z" />
<path fill="#fbb17c" opacity="1.00" d=" M 166.98 572.99 C 173.97 572.45 180.99 572.67 188.00 572.66 C 268.35 572.64 348.70 572.72 429.05 572.62 C 431.55 572.78 434.47 572.65 436.43 574.51 C 438.37 576.28 439.89 578.44 441.65 580.38 C 445.63 584.92 450.63 588.37 455.33 592.11 C 436.77 598.63 418.80 606.65 400.92 614.83 C 396.81 616.59 392.65 618.25 388.49 619.91 C 387.03 616.81 385.89 613.00 382.57 611.42 C 377.56 609.23 371.48 610.88 367.73 614.71 C 363.89 618.32 362.40 623.56 361.35 628.56 C 351.88 629.04 342.41 628.68 332.94 628.72 C 332.07 622.60 334.94 614.32 328.70 610.31 C 322.45 607.04 315.02 609.19 308.27 608.75 C 308.24 605.90 308.20 603.04 308.14 600.20 C 311.53 600.14 315.09 600.53 318.31 599.26 C 320.94 597.61 320.38 594.18 320.56 591.54 C 311.75 590.32 302.85 591.46 293.99 591.04 C 291.18 591.06 288.30 590.90 285.57 591.69 C 283.74 593.87 284.17 597.76 286.76 599.19 C 290.20 599.97 293.78 599.68 297.29 599.89 C 297.49 609.51 297.50 619.16 297.17 628.78 C 288.78 629.49 280.37 629.12 271.98 628.84 C 269.39 628.99 266.30 628.54 264.22 630.40 C 261.95 633.93 264.38 637.86 266.06 641.06 C 266.15 641.55 266.35 642.52 266.44 643.00 C 260.37 641.81 254.19 640.77 248.40 638.52 C 241.54 636.04 240.29 626.92 233.05 624.96 C 221.40 621.23 209.30 618.76 198.00 613.97 C 195.66 612.78 192.70 611.10 192.52 608.18 C 194.18 603.37 199.89 602.08 204.37 601.56 C 215.59 600.71 226.86 601.58 238.09 601.30 C 240.18 601.37 241.98 600.25 243.73 599.27 C 241.26 596.31 238.50 593.14 234.47 592.52 C 214.50 588.31 194.40 584.67 174.71 579.22 C 171.98 578.33 168.94 578.01 166.58 576.26 C 166.68 575.44 166.88 573.81 166.98 572.99 M 379.63 587.70 C 376.67 588.63 375.83 591.82 375.01 594.44 C 372.59 594.12 370.18 593.78 367.76 593.60 C 367.17 595.86 366.60 598.63 368.66 600.36 C 372.59 604.07 377.29 607.84 382.95 608.06 C 388.90 608.65 393.89 604.68 398.55 601.56 C 400.86 600.20 402.23 596.88 399.89 594.86 C 397.39 594.35 394.82 594.81 392.31 594.90 C 391.71 592.93 391.37 590.69 389.74 589.27 C 387.14 586.56 382.96 587.01 379.63 587.70 Z" />
<path fill="#fbb17c" opacity="1.00" d=" M 400.75 624.83 C 420.85 615.65 441.04 606.63 461.75 598.90 C 464.94 600.20 468.05 601.69 471.06 603.37 C 466.56 614.39 461.44 625.80 462.30 638.00 C 462.66 644.30 464.60 650.63 468.03 655.94 C 469.74 658.80 474.11 658.25 475.81 655.67 C 476.27 649.80 471.33 645.28 470.71 639.57 C 468.78 626.95 475.82 615.51 479.68 603.96 C 479.84 605.29 479.39 607.27 480.95 607.97 C 490.05 613.11 499.90 616.80 509.01 621.95 C 515.62 625.28 521.86 629.64 526.51 635.46 C 529.67 639.50 530.31 644.88 529.59 649.83 C 527.87 648.61 526.04 647.46 523.91 647.18 C 513.67 645.49 503.32 644.31 492.94 643.99 C 486.67 643.87 480.04 641.85 474.07 644.59 C 475.86 648.03 478.00 651.83 477.07 655.86 C 476.14 659.49 471.27 661.02 468.42 658.59 C 464.14 654.54 464.03 648.02 460.50 643.49 C 456.55 641.88 452.16 642.34 448.00 642.19 C 438.64 642.29 429.28 641.81 419.93 641.38 C 416.15 640.50 415.08 645.95 411.49 645.52 C 414.29 641.43 417.55 637.54 419.49 632.95 C 420.04 631.06 418.31 629.88 417.22 628.69 C 411.37 628.20 405.48 628.60 399.62 628.24 C 399.99 627.09 400.37 625.96 400.75 624.83 Z" />
</g>
<g id="#e88f56ff">
<path fill="#e88f56" opacity="1.00" d=" M 166.22 575.66 L 166.58 576.26 C 168.94 578.01 171.98 578.33 174.71 579.22 C 194.40 584.67 214.50 588.31 234.47 592.52 C 238.50 593.14 241.26 596.31 243.73 599.27 C 241.98 600.25 240.18 601.37 238.09 601.30 C 226.86 601.58 215.59 600.71 204.37 601.56 C 199.89 602.08 194.18 603.37 192.52 608.18 C 192.70 611.10 195.66 612.78 198.00 613.97 C 209.30 618.76 221.40 621.23 233.05 624.96 C 240.29 626.92 241.54 636.04 248.40 638.52 C 254.19 640.77 260.37 641.81 266.44 643.00 C 266.35 642.52 266.15 641.55 266.06 641.06 C 269.79 646.05 273.34 651.18 277.20 656.09 C 277.18 656.57 277.16 657.53 277.15 658.01 C 267.99 659.07 258.20 656.81 249.62 661.08 C 251.27 663.34 253.56 665.10 256.42 665.43 C 278.69 669.54 301.42 670.11 324.00 670.00 C 346.33 670.03 368.67 669.94 391.00 669.61 C 406.12 668.66 421.35 668.26 436.24 665.19 C 439.33 664.43 443.83 664.44 444.29 660.41 C 432.68 658.02 420.78 658.08 409.00 658.12 C 406.45 658.14 403.92 657.77 401.44 657.22 C 404.88 653.40 408.15 649.43 411.49 645.52 C 415.08 645.95 416.15 640.50 419.93 641.38 C 429.28 641.81 438.64 642.29 448.00 642.19 C 452.16 642.34 456.55 641.88 460.50 643.49 C 464.03 648.02 464.14 654.54 468.42 658.59 C 471.27 661.02 476.14 659.49 477.07 655.86 C 478.00 651.83 475.86 648.03 474.07 644.59 C 480.04 641.85 486.67 643.87 492.94 643.99 C 503.32 644.31 513.67 645.49 523.91 647.18 C 526.04 647.46 527.87 648.61 529.59 649.83 C 526.94 654.52 523.83 659.16 519.32 662.26 C 511.61 667.71 502.42 670.44 493.50 673.16 C 486.34 674.46 479.13 675.56 471.90 676.45 C 450.28 677.32 428.63 676.28 407.00 676.59 C 393.31 677.40 379.59 678.44 366.14 681.27 C 357.15 683.35 347.99 684.83 339.35 688.20 C 326.79 691.97 314.89 697.76 303.98 705.03 C 300.84 707.27 297.79 709.65 294.54 711.73 C 290.32 709.26 285.39 708.26 281.42 705.32 C 283.99 702.68 288.59 700.47 287.90 696.11 C 287.34 690.48 281.68 687.53 276.78 686.26 C 261.69 682.33 246.48 678.69 231.84 673.26 C 225.10 671.00 218.50 668.39 211.81 665.99 C 208.46 663.28 206.73 659.12 204.14 655.75 C 197.07 646.13 191.86 635.35 186.04 624.98 C 179.10 611.96 174.01 598.09 168.64 584.39 C 167.55 581.56 166.65 578.65 166.22 575.66 Z" />
<path fill="#e88f56" opacity="1.00" d=" M 803.36 590.27 C 822.31 586.25 841.28 582.21 859.91 576.84 C 851.45 604.46 839.14 631.00 823.02 655.00 C 820.80 658.11 818.80 661.42 816.21 664.23 C 803.35 670.72 789.32 674.34 775.61 678.55 C 766.62 681.29 757.42 683.37 748.52 686.40 C 744.36 687.78 739.89 690.50 739.18 695.22 C 738.38 699.75 742.53 702.80 745.06 705.94 C 740.53 707.41 736.00 708.87 731.68 710.87 C 732.33 712.00 732.99 713.16 733.70 714.29 C 726.83 708.68 720.16 701.34 719.64 692.04 C 719.15 683.44 724.54 676.08 730.12 670.10 C 733.89 666.24 736.87 661.66 740.81 657.95 C 749.02 654.20 756.77 649.52 765.14 646.13 C 771.10 643.34 777.47 641.42 783.23 638.21 C 788.74 635.32 789.40 627.68 795.27 625.28 C 806.32 620.49 818.47 618.62 829.32 613.31 C 831.48 612.10 834.62 609.73 833.09 606.92 C 831.17 602.76 825.93 602.05 821.89 601.46 C 810.58 600.91 799.24 601.26 787.93 601.25 C 785.75 601.38 783.88 600.21 782.10 599.16 C 787.05 592.47 795.87 591.86 803.36 590.27 Z" />
</g>
<g id="#c85724ff">
<path fill="#c85724" opacity="1.00" d=" M 308.37 619.28 C 312.82 618.90 317.42 618.08 321.82 619.21 C 323.19 622.22 322.30 625.71 322.10 628.90 C 317.53 629.45 312.90 629.42 308.34 628.80 C 308.41 625.62 308.43 622.45 308.37 619.28 Z" />
<path fill="#c85724" opacity="1.00" d=" M 281.89 641.24 C 297.56 640.17 313.30 640.75 329.00 640.72 C 343.67 640.64 358.33 640.83 373.00 640.69 C 381.38 640.73 389.79 640.32 398.13 641.46 C 396.21 645.53 393.24 650.65 388.04 650.33 C 357.70 650.48 327.35 650.34 297.00 650.41 C 294.36 650.38 291.70 650.54 289.10 650.10 C 285.65 648.23 283.84 644.47 281.89 641.24 Z" />
<path fill="#c85724" opacity="1.00" d=" M 277.20 656.09 C 278.95 658.18 280.60 660.44 282.84 662.05 C 284.44 662.72 286.23 662.54 287.93 662.65 C 322.64 662.51 357.35 662.58 392.06 662.62 C 396.11 663.09 398.88 659.79 401.44 657.22 C 403.92 657.77 406.45 658.14 409.00 658.12 C 420.78 658.08 432.68 658.02 444.29 660.41 C 443.83 664.44 439.33 664.43 436.24 665.19 C 421.35 668.26 406.12 668.66 391.00 669.61 C 368.67 669.94 346.33 670.03 324.00 670.00 C 301.42 670.11 278.69 669.54 256.42 665.43 C 253.56 665.10 251.27 663.34 249.62 661.08 C 258.20 656.81 267.99 659.07 277.15 658.01 C 277.16 657.53 277.18 656.57 277.20 656.09 Z" />
<path fill="#c85724" opacity="1.00" d=" M 775.61 678.55 C 789.32 674.34 803.35 670.72 816.21 664.23 C 813.21 669.40 810.03 674.53 805.50 678.51 C 793.11 693.60 780.20 708.42 765.34 721.17 C 762.50 724.25 759.22 726.89 755.84 729.35 C 747.42 726.06 740.36 720.25 733.70 714.29 C 732.99 713.16 732.33 712.00 731.68 710.87 C 736.00 708.87 740.53 707.41 745.06 705.94 C 742.53 702.80 738.38 699.75 739.18 695.22 C 739.89 690.50 744.36 687.78 748.52 686.40 C 757.42 683.37 766.62 681.29 775.61 678.55 Z" />
<path fill="#c85724" opacity="1.00" d=" M 211.81 665.99 C 218.50 668.39 225.10 671.00 231.84 673.26 C 246.48 678.69 261.69 682.33 276.78 686.26 C 281.68 687.53 287.34 690.48 287.90 696.11 C 288.59 700.47 283.99 702.68 281.42 705.32 C 285.39 708.26 290.32 709.26 294.54 711.73 C 286.49 717.52 279.02 724.07 271.52 730.53 C 264.84 725.62 258.57 720.14 253.07 713.94 C 246.01 705.96 236.97 699.76 231.11 690.75 C 228.08 686.52 223.93 683.22 221.10 678.83 C 218.25 674.36 214.09 670.82 211.81 665.99 Z" />
<path fill="#c85724" opacity="1.00" d=" M 613.65 714.83 C 620.74 719.96 627.30 726.59 630.11 735.06 C 631.51 738.86 629.76 742.65 627.71 745.82 C 623.22 745.60 618.77 746.74 614.27 746.21 C 614.43 735.75 614.54 725.26 613.65 714.83 Z" />
</g>
</svg>
